<?xml version="1.0" standalone="no"?>
<!DOCTYPE svg PUBLIC "-//W3C//DTD SVG 20010904//EN"
 "http://www.w3.org/TR/2001/REC-SVG-20010904/DTD/svg10.dtd">
<svg version="1.0" xmlns="http://www.w3.org/2000/svg"
 width="114.000000pt" height="114.000000pt" viewBox="0 0 114.000000 114.000000"
 preserveAspectRatio="xMidYMid meet">
<metadata>
Created by potrace 1.11, written by Peter Selinger 2001-2013
</metadata>
<g transform="translate(0.000000,114.000000) scale(0.100000,-0.100000)"
fill="#000000" stroke="none">
<path d="M560 1020 c0 -34 -39 -125 -75 -176 l-35 -48 45 -14 c24 -8 46 -20
48 -26 2 -6 -17 -74 -42 -151 l-46 -140 -138 -47 -137 -47 4 27 c7 41 20 116
22 125 1 4 2 11 3 15 0 5 24 22 53 37 l52 29 -57 19 c-67 22 -158 100 -209
178 -17 27 -33 47 -35 45 -3 -3 16 -122 41 -256 2 -14 14 -83 26 -155 13 -72
26 -134 30 -138 4 -5 61 10 126 33 66 23 150 53 188 67 l69 24 37 -41 37 -41
40 41 41 41 159 -57 c87 -31 173 -62 191 -69 17 -8 33 -11 33 -7 1 4 3 16 5
27 1 11 5 31 8 45 8 38 15 71 22 110 3 19 9 58 14 85 5 28 18 102 30 165 24
138 24 155 2 113 -52 -96 -152 -186 -238 -212 l-52 -17 53 -28 c58 -30 56 -25
81 -169 6 -36 6 -37 -17 -28 -13 5 -71 23 -129 41 -58 18 -111 37 -118 44 -7
7 -30 74 -52 150 -39 131 -40 139 -23 152 10 7 30 16 46 19 33 8 33 9 2 43
-26 28 -85 159 -88 193 -2 25 -17 25 -17 -1z"/>
<path d="M476 333 c8 -27 16 -80 17 -119 2 -78 13 -99 57 -109 27 -6 89 16 91
33 0 4 2 39 4 78 2 40 9 91 15 114 6 23 10 44 8 46 -2 1 -25 -17 -51 -41 l-47
-45 -47 45 c-27 25 -51 45 -55 45 -3 0 0 -21 8 -47z"/>
</g>
</svg>
