<svg id="Layer_1_copy" data-name="Layer 1 copy" xmlns="http://www.w3.org/2000/svg" viewBox="0 0 382.66 215.93"><defs><style>.cls-1{font-size:90px;font-family:PlayfairDisplay-Regular, Playfair Display;letter-spacing:-0.03em;}.cls-1,.cls-4,.cls-5{fill:#095540;}.cls-2{letter-spacing:0.12em;}.cls-3{letter-spacing:0.07em;}.cls-4{font-size:22px;font-family:PlayfairDisplay-Bold, Playfair Display;font-weight:700;letter-spacing:0.15em;}.cls-6{fill:#ffc629;}</style></defs><title>new-logo</title><text class="cls-1" transform="translate(18.85 151.93) scale(0.89 1)">W<tspan class="cls-2" x="78.75" y="0">ALS</tspan><tspan class="cls-3" x="269.37" y="0">K</tspan><tspan class="cls-2" x="334.62" y="0">Y</tspan></text><text class="cls-4" transform="translate(0 202.44)">INVESTMENT MANAGEMENT</text><rect class="cls-5" x="1.34" y="173.49" width="377.65" height="0.5"/><rect class="cls-5" x="1.34" y="214.79" width="377.65" height="1.14"/><path class="cls-6" d="M204.53,54.82l-.94-.12L176,63.91l2.37-14,9.11-5.14c-15,0-25.33-20.58-25.33-20.58l8.31,46.43L205.71,58Z" transform="translate(-17.19 -10.98)"/><path class="cls-6" d="M208.88,58,244.1,70.64l8.32-46.43s-10.29,20.58-25.33,20.58l9.1,5.14,2.37,14-28.49-9.09Z" transform="translate(-17.19 -10.98)"/><path class="cls-6" d="M215.8,62.34l-8.57,7.92-8.58-7.92a69.8,69.8,0,0,1,2.44,10.43,69.49,69.49,0,0,1,.06,8.94A7,7,0,0,0,207.22,85h0a7,7,0,0,0,6.06-3.25,70.36,70.36,0,0,1,.07-8.94A70.24,70.24,0,0,1,215.8,62.34Z" transform="translate(-17.19 -10.98)"/><path class="cls-6" d="M209.6,33.53l6.88,23.3-9.25,9.38-9.31-9.38,6.88-23.3s-2.39-2.42-7.59-3.24c0,0,6.9-5.56,9.68-19.31h.76c2.78,13.75,9.54,19.31,9.54,19.31C212,31.11,209.6,33.53,209.6,33.53Z" transform="translate(-17.19 -10.98)"/></svg>