<svg id="Layer_1_copy" data-name="Layer 1 copy" xmlns="http://www.w3.org/2000/svg" viewBox="0 0 490.6 138.52"><defs><style>.cls-1{font-size:87.43px;font-family:PlayfairDisplay-Regular, Playfair Display;letter-spacing:-0.04em;}.cls-1,.cls-4,.cls-5{fill:#095540;}.cls-2{letter-spacing:0.11em;}.cls-3{letter-spacing:0.06em;}.cls-4{font-size:19px;font-family:PlayfairDisplay-Bold, Playfair Display;font-weight:700;letter-spacing:0.15em;}.cls-6{fill:#ffc629;}</style></defs><title>new-logo</title><text class="cls-1" transform="translate(151.83 74.66) scale(0.89 1)">W<tspan class="cls-2" x="75.62" y="0">ALS</tspan><tspan class="cls-3" x="258.17" y="0">K</tspan><tspan class="cls-2" x="320.68" y="0">Y</tspan></text><text class="cls-4" transform="translate(150.19 125.17)">INVESTMENT MANAGEMENT</text><rect class="cls-5" x="149.88" y="96.26" width="328.37" height="1"/><rect class="cls-5" x="149.88" y="137.52" width="328.37" height="1"/><path class="cls-6" d="M190.79,271l-1.39-.18-40.62,13.58,3.5-20.6,13.42-7.58c-22.18,0-37.34-30.34-37.34-30.34l12.25,68.44,51.92-18.65Z" transform="translate(-128.36 -187.23)"/><path class="cls-6" d="M197.2,275.7l51.92,18.65,12.26-68.44S246.21,256.25,224,256.25l13.41,7.58,3.5,20.6L199,271Z" transform="translate(-128.36 -187.23)"/><path class="cls-6" d="M207.41,282.12l-12.64,11.67-12.64-11.67s3.05,9.74,3.59,15.37a103.68,103.68,0,0,1,.09,13.18,10.38,10.38,0,0,0,8.94,4.8h0a10.38,10.38,0,0,0,8.94-4.8,102.51,102.51,0,0,1,.1-13.18C204.36,291.86,207.41,282.12,207.41,282.12Z" transform="translate(-128.36 -187.23)"/><path class="cls-6" d="M198.26,239.66,208.41,274l-13.65,13.83L181.05,274l10.14-34.33s-3.52-3.58-11.18-4.79c0,0,10.17-8.18,14.26-28.45h1.12c4.1,20.27,14.06,28.45,14.06,28.45C201.79,236.08,198.26,239.66,198.26,239.66Z" transform="translate(-128.36 -187.23)"/></svg>