<?xml version="1.0" encoding="UTF-8"?>
<svg width="356px" height="327px" viewBox="0 0 356 327" version="1.1" xmlns="http://www.w3.org/2000/svg" xmlns:xlink="http://www.w3.org/1999/xlink">
    <!-- Generator: Sketch 57 (83077) - https://sketch.com -->
    <title>Walsky 5percent logo CMYK</title>
    <desc>Created with Sketch.</desc>
    <defs>
        <polygon id="path-1" points="0.06 0.087 355.780833 0.087 355.780833 326.999778 0.06 326.999778"></polygon>
    </defs>
    <g id="Walsky-5percent-logo-CMYK" stroke="none" stroke-width="1" fill="none" fill-rule="evenodd">
        <g id="Group-3">
            <mask id="mask-2" fill="white">
                <use xlink:href="#path-1"></use>
            </mask>
            <g id="Clip-2"></g>
            <path d="M355.698,167.208 C355.681,168.317 355.698,169.42 355.639,170.531 C349.322,267.133 272.232,325.295 196.809,326.849 C195.821,326.881 194.813,326.922 193.806,326.951 C159.54,327.857 120.964,316.13 90.784,292.767 C81.238,285.381 72.042,275.651 68.049,268.934 C50.944,240.11 46.788,212.748 46.788,179.356 C46.788,130.555 68.894,77.363 108.776,50.34 C109.044,50.146 109.311,49.969 109.578,49.804 C111.616,48.437 115.472,46.072 117.582,45.011 C117.612,44.99 117.623,44.979 117.633,44.97 C117.787,44.889 117.942,44.806 118.064,44.724 C118.147,44.692 118.209,44.652 118.27,44.611 C118.508,44.476 118.735,44.343 118.971,44.219 C114.792,46.184 110.719,48.448 109.29,49.372 C106.172,51.204 102.511,53.663 98.458,56.697 C94.456,59.804 90.084,63.548 85.672,68.002 C76.825,76.87 67.835,88.668 60.315,102.586 C34.465,150.255 33.621,200.146 49.175,251.651 C49.607,253.072 50.048,254.431 50.47,255.766 C50.902,257.103 51.282,258.401 51.787,259.646 C52.734,262.155 53.617,264.51 54.441,266.68 C54.832,267.721 55.212,268.71 55.573,269.654 C20.67,252.063 -10.367,206.154 3.295,137.2 C22.635,39.59 108.703,-11.515 204.711,2.32 C79.463,48.677 166.231,209.233 85.782,267.212 C85.2,267.629 84.832,268.281 84.768,268.995 C84.706,269.708 84.956,270.416 85.455,270.928 C85.466,270.938 85.478,270.951 85.487,270.961 C86.865,272.473 88.768,274.119 90.888,276.176 C91.947,277.225 93.182,278.223 94.465,279.334 C95.763,280.425 97.102,281.638 98.603,282.822 C127.787,306.254 164.386,317.157 193.785,316.726 C194.733,316.716 195.658,316.707 196.604,316.686 C274.475,316.943 346.915,254.398 351.071,167.052 C351.151,164.915 351.276,162.784 351.276,160.655 C350.928,141.141 348.725,122.759 339.92,100.94 C325.847,65.956 299.885,37.872 269.002,20.868 C262.049,17.042 256.309,14.572 252.399,12.916 C249.952,11.949 248.202,11.27 247.235,10.901 C248.202,11.24 249.973,11.878 252.462,12.773 C256.411,14.357 262.215,16.682 269.271,20.365 C300.686,36.751 327.556,64.401 342.76,99.757 C352.162,121.648 354.918,140.236 355.761,160.613 C355.823,162.805 355.722,165.006 355.698,167.208" id="Fill-1" fill="#445D51" mask="url(#mask-2)"></path>
        </g>
        <path d="M276.037,202.4 C276.037,206.088 275.428,209.33 274.21,212.128 C272.991,214.927 271.379,217.263 269.371,219.14 C267.361,221.016 265.09,222.433 262.557,223.386 C260.021,224.34 257.437,224.819 254.804,224.819 C250.261,224.819 246.459,223.962 243.396,222.251 C240.335,220.54 237.817,218.3 235.842,215.535 L237.619,214.152 C239.462,216.853 241.783,218.976 244.582,220.522 C247.38,222.07 250.787,222.843 254.804,222.843 C257.107,222.843 259.396,222.416 261.668,221.559 C263.939,220.705 265.979,219.42 267.791,217.708 C269.601,215.997 271.065,213.873 272.186,211.337 C273.305,208.804 273.864,205.824 273.864,202.4 C273.864,199.57 273.403,196.919 272.481,194.45 C271.559,191.981 270.243,189.842 268.531,188.031 C266.818,186.22 264.712,184.805 262.211,183.784 C259.708,182.763 256.844,182.253 253.618,182.253 C251.313,182.253 249.059,182.584 246.854,183.241 C244.646,183.899 242.59,184.755 240.681,185.808 L241.198,153.711 L273.173,153.711 L273.173,155.687 L243.446,155.687 L242.854,182.845 C244.691,181.924 246.661,181.282 248.763,180.92 C250.862,180.559 252.799,180.377 254.57,180.377 C257.919,180.377 260.905,180.937 263.531,182.055 C266.158,183.175 268.406,184.707 270.276,186.648 C272.146,188.59 273.576,190.912 274.561,193.61 C275.545,196.311 276.037,199.24 276.037,202.4" id="Fill-4" fill="#445D51"></path>
        <path d="M317.352,182.109 C317.352,180.997 317.15,179.95 316.747,178.971 C316.345,177.993 315.787,177.139 315.078,176.409 C314.367,175.68 313.542,175.104 312.602,174.682 C311.661,174.26 310.653,174.048 309.579,174.048 C308.504,174.048 307.496,174.26 306.557,174.682 C305.615,175.104 304.8,175.68 304.109,176.409 C303.418,177.139 302.871,177.993 302.469,178.971 C302.065,179.95 301.863,180.997 301.863,182.109 C301.863,183.26 302.065,184.317 302.469,185.276 C302.871,186.236 303.418,187.081 304.109,187.809 C304.8,188.539 305.615,189.105 306.557,189.507 C307.496,189.911 308.504,190.112 309.579,190.112 C310.653,190.112 311.661,189.911 312.602,189.507 C313.542,189.105 314.367,188.539 315.078,187.809 C315.787,187.081 316.345,186.236 316.747,185.276 C317.15,184.317 317.352,183.26 317.352,182.109 Z M318.619,182.109 C318.619,183.415 318.379,184.624 317.899,185.737 C317.419,186.85 316.767,187.809 315.941,188.616 C315.115,189.421 314.156,190.054 313.063,190.515 C311.969,190.976 310.807,191.207 309.579,191.207 C308.351,191.207 307.189,190.976 306.096,190.515 C305.002,190.054 304.052,189.421 303.245,188.616 C302.439,187.809 301.796,186.85 301.316,185.737 C300.836,184.624 300.597,183.415 300.597,182.109 C300.597,180.842 300.836,179.653 301.316,178.54 C301.796,177.426 302.439,176.458 303.245,175.631 C304.052,174.807 305.002,174.155 306.096,173.674 C307.189,173.194 308.351,172.954 309.579,172.954 C310.807,172.954 311.969,173.194 313.063,173.674 C314.156,174.155 315.115,174.807 315.941,175.631 C316.767,176.458 317.419,177.426 317.899,178.54 C318.379,179.653 318.619,180.842 318.619,182.109 Z M285.685,192.3 L284.764,191.667 L310.098,148.369 L311.019,149.002 L285.685,192.3 Z M294.264,158.733 C294.264,157.62 294.063,156.574 293.659,155.595 C293.256,154.616 292.699,153.762 291.989,153.033 C291.278,152.304 290.453,151.728 289.514,151.305 C288.572,150.883 287.564,150.672 286.49,150.672 C285.416,150.672 284.408,150.883 283.468,151.305 C282.526,151.728 281.712,152.304 281.021,153.033 C280.33,153.762 279.783,154.616 279.38,155.595 C278.977,156.574 278.775,157.62 278.775,158.733 C278.775,159.884 278.977,160.941 279.38,161.9 C279.783,162.86 280.33,163.704 281.021,164.432 C281.712,165.163 282.526,165.729 283.468,166.131 C284.408,166.534 285.416,166.736 286.49,166.736 C287.564,166.736 288.572,166.534 289.514,166.131 C290.453,165.729 291.278,165.163 291.989,164.432 C292.699,163.704 293.256,162.86 293.659,161.9 C294.063,160.941 294.264,159.884 294.264,158.733 Z M295.53,158.733 C295.53,160.038 295.29,161.247 294.811,162.36 C294.33,163.473 293.678,164.432 292.853,165.239 C292.027,166.045 291.068,166.678 289.974,167.139 C288.88,167.6 287.719,167.831 286.49,167.831 C285.262,167.831 284.102,167.6 283.007,167.139 C281.913,166.678 280.963,166.045 280.157,165.239 C279.352,164.432 278.708,163.473 278.229,162.36 C277.748,161.247 277.509,160.038 277.509,158.733 C277.509,157.466 277.748,156.277 278.229,155.163 C278.708,154.05 279.352,153.081 280.157,152.255 C280.963,151.43 281.913,150.778 283.007,150.298 C284.102,149.818 285.262,149.578 286.49,149.578 C287.719,149.578 288.88,149.818 289.974,150.298 C291.068,150.778 292.027,151.43 292.853,152.255 C293.678,153.081 294.33,154.05 294.811,155.163 C295.29,156.277 295.53,157.466 295.53,158.733 L295.53,158.733 Z" id="Fill-5" fill="#445D51"></path>
        <path d="M229.33,43.712 L228.757,43.64 L211.957,49.255 L213.404,40.734 L218.954,37.598 C209.782,37.598 203.511,25.049 203.511,25.049 L208.576,53.357 L230.054,45.644 L229.33,43.712" id="Fill-6" fill="#F6BF3D"></path>
        <path d="M231.985,45.644 L253.461,53.357 L258.53,25.049 C258.53,25.049 252.257,37.598 243.085,37.598 L248.634,40.734 L250.082,49.255 L232.709,43.712 L231.985,45.644" id="Fill-7" fill="#F6BF3D"></path>
        <path d="M236.205,48.302 L230.978,53.128 L225.75,48.302 C225.75,48.302 227.011,52.328 227.235,54.659 C227.459,56.99 227.274,60.109 227.274,60.109 C227.274,60.109 228.362,62.086 230.972,62.093 C230.974,62.093 230.976,62.093 230.978,62.093 C230.979,62.093 230.981,62.093 230.983,62.093 C233.594,62.086 234.682,60.109 234.682,60.109 C234.682,60.109 234.497,56.99 234.722,54.659 C234.945,52.328 236.205,48.302 236.205,48.302" id="Fill-8" fill="#F6BF3D"></path>
        <path d="M168.053,76.821 L166.926,76.821 C165.992,76.88 165.526,77.071 165.526,77.394 C165.526,77.453 166.289,79.995 167.815,85.017 C168.407,83.555 169.103,81.624 169.901,79.224 C170.008,78.904 170.169,78.482 170.384,77.957 L170.464,77.608 C170.464,77.084 169.66,76.821 168.053,76.821 Z M184.5,76.32 C184.5,76.569 184.059,76.706 183.178,76.734 C182.192,76.763 181.538,77.128 181.214,77.829 C180.891,78.531 180.391,80.022 179.717,82.301 C178.55,86.305 177.512,89.709 176.604,92.514 C175.05,97.308 173.638,101.941 172.369,106.412 C172.263,106.792 172.13,106.983 171.97,106.983 C171.837,106.983 171.711,106.837 171.591,106.547 C171.472,106.257 171.12,105.239 170.536,103.495 C169.812,101.207 169.024,98.905 168.172,96.586 C167.5,94.768 166.84,92.89 166.194,90.954 C164.381,95.898 162.58,101.061 160.792,106.443 C160.691,106.802 160.566,106.983 160.417,106.983 C160.291,106.983 160.141,106.734 159.966,106.237 C159.162,104.075 156.181,95.117 151.023,79.364 C150.659,78.254 150.387,77.56 150.206,77.282 C150.024,77.005 149.571,76.851 148.846,76.821 C147.602,76.763 146.979,76.558 146.979,76.208 C146.979,75.945 147.188,75.813 147.602,75.813 C147.783,75.813 147.938,75.828 148.068,75.857 C149.442,75.945 150.919,75.988 152.5,75.988 C152.812,75.988 153.349,75.96 154.114,75.9 C154.878,75.843 155.87,75.813 157.089,75.813 L157.516,75.813 C157.957,75.813 158.177,75.947 158.177,76.216 C158.177,76.544 157.778,76.723 156.98,76.752 C155.384,76.813 154.586,77.051 154.586,77.469 C154.586,78.288 156.968,85.902 161.732,100.312 C163.464,95.375 164.756,91.738 165.61,89.4 L161.771,78.173 C161.563,77.561 161.321,77.168 161.048,76.993 C160.774,76.819 160.272,76.717 159.544,76.687 C158.814,76.658 158.45,76.527 158.45,76.294 C158.45,75.973 158.722,75.813 159.266,75.813 C159.681,75.813 160.186,75.843 160.782,75.9 C161.378,75.96 162.415,75.988 163.893,75.988 L171.125,75.988 C172.083,75.988 173.237,75.942 174.585,75.848 C174.741,75.825 174.922,75.813 175.129,75.813 C175.752,75.813 176.062,75.967 176.062,76.274 C176.062,76.552 175.842,76.69 175.401,76.69 L174.741,76.69 C173.574,76.69 172.692,76.865 172.097,77.215 C171.837,77.362 171.358,78.413 170.658,80.369 C170.344,81.187 169.821,82.574 169.088,84.53 C168.937,84.969 168.708,85.63 168.403,86.51 C168.583,87.095 169.151,88.719 170.104,91.38 C171.337,94.763 172.35,97.665 173.146,100.085 C174.604,95.353 176.322,89.759 178.302,83.303 C179.35,79.866 179.873,77.958 179.873,77.576 C179.873,77.018 179.419,76.738 178.512,76.738 C177.242,76.738 176.607,76.577 176.607,76.254 C176.607,75.96 176.866,75.813 177.384,75.813 C177.825,75.813 178.175,75.833 178.435,75.871 C179.004,75.95 179.522,75.988 179.989,75.988 L183.1,75.988 C183.878,75.988 184.306,76.023 184.383,76.092 C184.461,76.161 184.5,76.237 184.5,76.32 L184.5,76.32 Z" id="Fill-9" fill="#184D3A"></path>
        <path d="M196.397,95.628 C195.977,94.315 195.278,92.143 194.306,89.109 L192.437,83.033 C191.354,86.262 190.053,90.46 188.532,95.628 L196.397,95.628 Z M206.973,106.126 C206.973,106.376 206.778,106.5 206.39,106.5 C206.13,106.5 205.896,106.485 205.69,106.457 L200.752,106.281 L195.813,106.457 C195.632,106.485 195.438,106.5 195.231,106.5 C194.711,106.5 194.452,106.348 194.452,106.042 C194.452,105.705 194.803,105.536 195.503,105.536 C197.782,105.507 198.924,105.25 198.924,104.762 C198.924,104.734 198.897,104.62 198.844,104.419 L198.526,103.259 L198.328,102.648 C198.094,101.741 197.525,99.738 196.619,96.637 L188.308,96.637 C186.754,101.313 185.977,104.001 185.977,104.703 C185.977,105.113 186.133,105.36 186.443,105.448 C186.521,105.478 187.168,105.536 188.387,105.624 C189.139,105.653 189.515,105.799 189.515,106.062 C189.515,106.354 189.177,106.5 188.503,106.5 C187.312,106.5 185.925,106.441 184.344,106.325 C183.954,106.296 183.553,106.281 183.138,106.281 C182.724,106.281 182.322,106.33 181.933,106.427 C181.726,106.476 181.558,106.5 181.428,106.5 C181.064,106.5 180.884,106.369 180.884,106.105 C180.884,105.84 181.291,105.694 182.108,105.664 C182.925,105.636 183.514,105.496 183.877,105.246 C184.24,104.997 184.524,104.522 184.732,103.817 C188.066,93.026 190.781,84.361 192.875,77.821 C192.935,77.476 193.056,77.089 193.237,76.657 L193.402,75.857 C193.481,75.536 193.584,75.375 193.715,75.375 C193.792,75.375 193.856,75.462 193.908,75.638 C194.245,76.778 195.011,79.16 196.202,82.783 C197.136,85.619 199.454,92.735 203.161,104.133 C203.369,104.795 203.634,105.215 203.959,105.396 C204.282,105.577 204.949,105.681 205.962,105.712 C206.636,105.74 206.973,105.878 206.973,106.126 L206.973,106.126 Z" id="Fill-10" fill="#184D3A"></path>
        <path d="M231.039,102.949 C231.039,103.71 231.001,104.966 230.923,106.72 L230.496,106.72 C230.341,106.72 229.966,106.691 229.37,106.632 C228.775,106.573 228.103,106.545 227.354,106.545 L211.209,106.412 C210.769,106.412 210.55,106.281 210.55,106.018 C210.55,105.814 210.899,105.683 211.599,105.624 C212.583,105.566 213.174,105.441 213.368,105.251 C213.563,105.061 213.66,104.513 213.66,103.607 L213.66,78.969 C213.66,77.889 213.563,77.26 213.368,77.085 C213.174,76.909 212.479,76.821 211.287,76.821 C210.795,76.821 210.55,76.661 210.55,76.339 C210.55,76.076 210.704,75.945 211.016,75.945 L211.365,75.945 C212.22,76.032 213.918,76.076 216.46,76.076 C216.692,76.076 217.146,76.055 217.819,76.011 C218.494,75.966 219.051,75.945 219.492,75.945 L219.92,75.945 C220.387,75.945 220.62,76.091 220.62,76.383 C220.62,76.558 220.548,76.668 220.405,76.711 C220.263,76.756 219.815,76.793 219.064,76.821 C218.313,76.851 217.865,76.989 217.724,77.238 C217.58,77.486 217.509,78.254 217.509,79.54 L217.509,105.404 C218.209,105.434 219.181,105.448 220.425,105.448 C223.458,105.448 225.596,105.273 226.84,104.922 C228.084,104.571 228.927,103.914 229.367,102.949 C229.809,101.985 230.067,100.685 230.145,99.048 C230.17,98.668 230.319,98.478 230.593,98.478 C230.917,98.478 231.064,98.697 231.039,99.135 L231.039,100.232 C231.039,100.29 231.039,100.422 231.039,100.626 C231.039,100.831 231.039,101.035 231.039,101.239 L231.039,102.949" id="Fill-11" fill="#184D3A"></path>
        <path d="M253.94,97.864 C253.94,100.378 253.09,102.519 251.394,104.287 C249.695,106.055 247.654,106.939 245.271,106.939 C243.87,106.939 242.198,106.457 240.254,105.492 C239.735,105.229 239.347,105.097 239.088,105.097 C238.777,105.097 238.582,105.503 238.505,106.311 C238.479,106.729 238.311,106.939 238,106.939 C237.74,106.939 237.61,106.763 237.61,106.412 C237.61,106.179 237.624,106.004 237.649,105.887 C237.856,104.104 237.961,102.453 237.961,100.933 C237.961,100.641 237.935,99.822 237.882,98.478 C237.856,98.303 237.844,98.069 237.844,97.776 C237.844,97.337 238,97.119 238.311,97.119 C238.569,97.119 238.751,97.473 238.854,98.181 C239.528,103.435 241.719,106.062 245.426,106.062 C247.007,106.062 248.231,105.558 249.1,104.55 C249.967,103.542 250.403,102.117 250.403,100.275 C250.403,98.639 249.98,97.243 249.14,96.089 C248.297,94.935 246.851,93.787 244.804,92.647 C242.341,91.274 240.63,89.944 239.671,88.658 C238.712,87.372 238.232,85.779 238.232,83.88 C238.232,81.454 238.926,79.452 240.313,77.873 C241.699,76.296 243.456,75.506 245.582,75.506 C246.461,75.506 247.681,75.843 249.235,76.515 C249.78,76.749 250.182,76.865 250.441,76.865 C250.726,76.865 250.914,76.807 251.005,76.69 C251.096,76.573 251.181,76.267 251.258,75.769 C251.31,75.478 251.452,75.331 251.685,75.331 C251.944,75.331 252.073,75.506 252.073,75.857 C252.073,76.091 252.061,76.267 252.035,76.383 C251.957,77.085 251.919,77.933 251.919,78.925 C251.919,80.328 251.982,81.44 252.113,82.258 L252.152,82.959 C252.178,83.281 252.061,83.441 251.802,83.441 C251.517,83.441 251.321,83.106 251.22,82.433 C250.933,80.709 250.26,79.27 249.197,78.115 C248.134,76.96 246.942,76.383 245.62,76.383 C244.323,76.383 243.293,76.851 242.529,77.786 C241.764,78.722 241.382,79.993 241.382,81.6 C241.382,83.47 241.939,84.976 243.055,86.115 C243.676,86.759 245.023,87.665 247.098,88.834 C249.533,90.207 251.283,91.603 252.346,93.02 C253.408,94.438 253.94,96.053 253.94,97.864" id="Fill-12" fill="#184D3A"></path>
        <path d="M286.328,106.062 C286.328,106.325 286.146,106.457 285.783,106.457 L276.258,106.457 C276.102,106.457 275.934,106.457 275.753,106.457 C275.26,106.457 275.013,106.346 275.013,106.125 C275.013,105.904 275.337,105.767 275.985,105.712 C277.334,105.566 278.007,105.317 278.007,104.966 C278.007,104.587 274.47,99.836 267.393,90.718 L267.393,103.353 C267.393,104.372 267.537,105.006 267.826,105.254 C268.113,105.503 268.888,105.626 270.147,105.626 C270.437,105.626 270.581,105.772 270.581,106.064 C270.581,106.326 270.398,106.457 270.035,106.457 C269.774,106.457 269.54,106.457 269.332,106.457 L263.906,106.457 C263.568,106.457 263.172,106.457 262.716,106.457 C262.261,106.457 261.799,106.457 261.332,106.457 L260.98,106.457 C260.59,106.457 260.395,106.332 260.395,106.082 C260.395,105.804 260.873,105.651 261.833,105.624 C262.714,105.595 263.233,105.376 263.388,104.966 C263.466,104.82 263.505,103.9 263.505,102.205 L263.505,77.786 C263.478,77.172 262.761,76.865 261.351,76.865 C260.713,76.865 260.395,76.705 260.395,76.383 C260.395,76.12 260.617,75.988 261.063,75.988 C261.193,75.988 261.364,76.003 261.573,76.032 C261.993,76.091 263.16,76.12 265.075,76.12 C267.119,76.12 268.418,76.091 268.969,76.032 C269.258,76.003 269.559,75.988 269.873,75.988 C270.345,75.988 270.581,76.149 270.581,76.47 C270.581,76.646 270.508,76.756 270.362,76.799 C270.216,76.843 269.758,76.88 268.987,76.909 C268.217,76.939 267.757,77.056 267.612,77.26 C267.466,77.464 267.393,78.122 267.393,79.232 L267.393,89.929 L270.697,86.202 C275.699,80.538 278.201,77.589 278.201,77.354 C278.201,76.972 277.593,76.796 276.374,76.825 C275.597,76.855 275.208,76.707 275.208,76.385 C275.208,76.18 275.39,76.062 275.753,76.033 C276.115,76.003 277.372,75.988 279.523,75.988 L281.662,75.988 C282.569,75.988 283.087,76.003 283.218,76.032 C283.476,76.091 283.606,76.237 283.606,76.47 C283.606,76.793 283.319,76.953 282.749,76.953 C281.553,76.924 280.787,76.955 280.449,77.046 C280.111,77.137 279.775,77.38 279.438,77.776 C277.756,79.768 275.197,82.757 271.759,86.742 L270.721,87.851 L270.223,88.473 C270.379,88.679 271.027,89.468 272.168,90.842 C274.347,93.386 277.472,97.466 281.543,103.08 C282.397,104.25 282.988,104.951 283.313,105.185 C283.638,105.419 284.266,105.565 285.199,105.623 C285.952,105.681 286.328,105.828 286.328,106.062" id="Fill-13" fill="#184D3A"></path>
        <path d="M311.639,76.271 C311.639,76.492 311.418,76.603 310.978,76.603 C309.552,76.632 308.67,76.912 308.334,77.444 C308.023,77.769 306.908,80.279 304.99,84.976 C304.135,87.05 303.331,88.877 302.579,90.455 C302.061,91.54 301.763,92.28 301.686,92.676 C301.606,93.072 301.568,93.929 301.568,95.247 L301.568,103.557 C301.568,104.524 301.678,105.096 301.899,105.272 C302.119,105.447 302.891,105.58 304.212,105.668 C304.912,105.722 305.263,105.861 305.263,106.081 C305.263,106.302 305.081,106.412 304.719,106.412 L304.252,106.412 L298.809,106.281 C297.278,106.281 296.021,106.311 295.037,106.369 C294.881,106.398 294.699,106.412 294.492,106.412 C294.129,106.412 293.948,106.274 293.948,105.997 C293.948,105.72 294.245,105.566 294.842,105.536 C296.268,105.478 297.109,105.332 297.369,105.098 C297.628,104.866 297.758,104.168 297.758,103.003 L297.758,93.787 C297.499,93.145 296.747,91.435 295.504,88.658 L291.615,79.978 C291.227,79.13 290.76,78.18 290.216,77.128 C289.93,76.836 289.314,76.69 288.369,76.69 C287.422,76.69 286.95,76.53 286.95,76.208 C286.95,75.974 287.157,75.857 287.571,75.857 C288.116,75.857 289.204,75.887 290.837,75.945 C291.771,75.974 292.444,75.988 292.859,75.988 L297.369,75.923 C297.55,75.878 297.758,75.857 297.991,75.857 C298.458,75.857 298.69,76.004 298.69,76.298 C298.69,76.562 298.251,76.694 297.369,76.694 C295.762,76.694 294.959,77.018 294.959,77.665 C294.959,78.165 295.775,80.178 297.406,83.706 L300.959,91.293 C301.606,89.979 302.347,88.358 303.178,86.431 L305.473,81.214 C306.317,79.325 306.739,78.085 306.739,77.496 C306.739,77.111 306.52,76.89 306.079,76.831 C305.171,76.684 304.563,76.625 304.252,76.653 C303.681,76.684 303.396,76.536 303.396,76.211 C303.396,75.976 303.642,75.857 304.135,75.857 L307.673,75.857 C310.317,75.769 311.639,75.908 311.639,76.271" id="Fill-14" fill="#184D3A"></path>
        <path d="M150.239,128.608 C150.239,128.668 150.197,128.698 150.113,128.698 L150.007,128.698 C149.965,128.677 149.488,128.666 148.575,128.666 C148.4,128.666 148.224,128.673 148.049,128.687 C147.958,128.694 147.817,128.698 147.628,128.698 C147.536,128.698 147.491,128.666 147.491,128.603 C147.491,128.547 147.582,128.515 147.765,128.508 C148.045,128.502 148.21,128.468 148.259,128.408 C148.309,128.348 148.333,128.146 148.333,127.801 L148.333,122.245 C148.333,121.9 148.315,121.706 148.28,121.664 C148.237,121.593 148.042,121.551 147.693,121.537 C147.558,121.531 147.491,121.506 147.491,121.463 C147.491,121.407 147.533,121.379 147.618,121.379 L149.05,121.379 C149.157,121.379 149.362,121.382 149.666,121.39 L150.069,121.379 C150.182,121.379 150.239,121.409 150.239,121.469 C150.239,121.523 150.083,121.556 149.77,121.569 C149.592,121.576 149.484,121.608 149.445,121.663 C149.406,121.72 149.386,121.867 149.386,122.106 L149.386,127.729 C149.386,128.129 149.403,128.346 149.439,128.382 C149.516,128.46 149.744,128.505 150.123,128.518 C150.2,128.518 150.239,128.549 150.239,128.608" id="Fill-15" fill="#184D3A"></path>
        <path d="M158.916,121.484 C158.916,121.555 158.828,121.587 158.653,121.579 L158.232,121.579 C158.119,121.579 158.052,121.599 158.031,121.637 C158.01,121.675 158,121.793 158,121.99 L158,128.046 C158,128.418 157.997,128.635 157.989,128.698 C157.982,128.761 157.961,128.793 157.927,128.793 C157.885,128.793 157.835,128.754 157.78,128.676 L156.434,126.705 C155.654,125.556 154.705,124.121 153.587,122.4 L153.587,128.296 C153.595,128.389 153.648,128.447 153.747,128.471 C153.847,128.496 154.084,128.511 154.46,128.518 C154.552,128.518 154.599,128.547 154.599,128.603 C154.599,128.673 154.508,128.709 154.325,128.709 C154.262,128.709 154.061,128.698 153.725,128.677 C153.612,128.67 153.504,128.666 153.398,128.666 C153.405,128.666 153.344,128.673 153.213,128.687 C153.084,128.701 152.886,128.709 152.619,128.709 L152.514,128.709 C152.352,128.709 152.271,128.677 152.271,128.613 C152.271,128.55 152.341,128.518 152.482,128.518 C152.896,128.511 153.136,128.485 153.203,128.439 C153.27,128.394 153.303,128.245 153.303,127.991 L153.303,122.792 C153.303,122.208 153.184,121.843 152.945,121.695 C152.833,121.626 152.633,121.59 152.345,121.59 C152.162,121.59 152.071,121.553 152.071,121.479 C152.071,121.413 152.124,121.379 152.229,121.379 C152.37,121.379 152.548,121.386 152.767,121.4 C152.984,121.415 153.1,121.421 153.114,121.421 C153.135,121.421 153.233,121.418 153.409,121.411 C153.641,121.411 153.865,121.4 154.083,121.379 L157.715,126.802 L157.715,122.116 C157.715,121.899 157.712,121.767 157.705,121.722 C157.698,121.676 157.67,121.641 157.621,121.616 C157.571,121.592 157.403,121.579 157.115,121.579 C156.863,121.579 156.737,121.548 156.737,121.484 C156.737,121.415 156.821,121.379 156.989,121.379 L157.357,121.379 C157.448,121.379 157.547,121.379 157.652,121.379 C157.764,121.379 157.831,121.379 157.852,121.379 C157.86,121.379 157.922,121.379 158.042,121.379 C158.154,121.379 158.259,121.379 158.358,121.379 L158.685,121.379 C158.838,121.379 158.916,121.415 158.916,121.484" id="Fill-16" fill="#184D3A"></path>
        <path d="M167.572,121.443 C167.572,121.499 167.505,121.531 167.372,121.538 C167.063,121.545 166.856,121.59 166.75,121.675 C166.645,121.76 166.537,121.957 166.424,122.266 L166.066,123.249 C165.202,125.621 164.595,127.441 164.244,128.709 C164.223,128.793 164.188,128.835 164.139,128.835 C164.083,128.835 163.967,128.571 163.792,128.045 C163.476,127.083 163.229,126.36 163.054,125.876 C162.866,125.341 162.588,124.544 162.219,123.483 L161.706,122.064 C161.636,121.867 161.559,121.735 161.475,121.669 C161.39,121.602 161.25,121.566 161.053,121.558 C160.822,121.551 160.683,121.545 160.637,121.537 C160.592,121.531 160.569,121.503 160.569,121.453 C160.569,121.39 160.639,121.358 160.78,121.358 L160.875,121.358 C161.001,121.358 161.22,121.363 161.532,121.374 C161.845,121.384 162.068,121.39 162.201,121.39 C162.237,121.39 162.371,121.384 162.606,121.374 C162.842,121.363 163.177,121.358 163.612,121.358 L163.76,121.358 C163.886,121.358 163.949,121.39 163.949,121.454 C163.949,121.525 163.823,121.563 163.57,121.569 L162.928,121.591 C162.781,121.599 162.707,121.646 162.707,121.733 C162.707,121.749 162.713,121.777 162.728,121.821 L162.809,122.107 C162.823,122.163 163.166,123.152 163.838,125.074 C163.951,125.405 164.165,126.036 164.481,126.965 C165.637,123.684 166.215,121.959 166.215,121.79 C166.215,121.629 166.042,121.555 165.698,121.569 L165.371,121.569 C165.287,121.569 165.244,121.538 165.244,121.476 C165.244,121.397 165.35,121.358 165.561,121.358 C165.603,121.358 165.722,121.358 165.918,121.358 C166.115,121.379 166.259,121.39 166.35,121.39 L166.688,121.39 L167.382,121.358 C167.509,121.358 167.572,121.386 167.572,121.443" id="Fill-17" fill="#184D3A"></path>
        <path d="M174.901,127.003 C174.901,127.031 174.894,127.203 174.879,127.519 C174.866,127.835 174.858,128.136 174.858,128.424 L174.858,128.771 C174.17,128.73 172.809,128.709 170.772,128.709 C170.527,128.709 170.285,128.709 170.046,128.709 C169.808,128.709 169.646,128.709 169.562,128.709 L169.457,128.709 C169.323,128.709 169.256,128.68 169.256,128.623 C169.256,128.587 169.277,128.564 169.32,128.558 C169.34,128.558 169.474,128.548 169.72,128.529 C169.902,128.515 170.013,128.476 170.051,128.413 C170.09,128.35 170.109,128.184 170.109,127.917 L170.109,121.981 C170.109,121.776 170.08,121.655 170.02,121.616 C169.96,121.578 169.769,121.558 169.446,121.558 C169.333,121.558 169.277,121.528 169.277,121.469 C169.277,121.409 169.355,121.379 169.509,121.379 L171.31,121.379 C171.374,121.379 171.77,121.379 172.5,121.379 C173.23,121.379 173.722,121.379 173.974,121.379 C174.185,121.379 174.378,121.365 174.553,121.337 C174.567,121.639 174.599,122.057 174.648,122.59 L174.69,123.043 C174.697,123.078 174.701,123.124 174.701,123.18 C174.701,123.251 174.669,123.286 174.606,123.286 C174.529,123.286 174.472,123.197 174.438,123.02 C174.304,122.384 174.086,121.981 173.784,121.812 C173.56,121.685 172.97,121.622 172.015,121.622 L171.152,121.622 L171.152,124.717 L171.405,124.717 C172.191,124.717 172.67,124.658 172.842,124.538 C173.014,124.419 173.131,124.071 173.195,123.496 C173.208,123.348 173.248,123.275 173.311,123.275 C173.388,123.275 173.427,123.337 173.427,123.464 C173.427,123.591 173.419,123.777 173.406,124.023 C173.391,124.268 173.384,124.454 173.384,124.581 C173.384,125.332 173.396,125.848 173.418,126.129 C173.424,126.198 173.427,126.258 173.427,126.308 C173.427,126.399 173.388,126.444 173.311,126.444 C173.262,126.444 173.229,126.414 173.212,126.355 C173.194,126.295 173.164,126.1 173.123,125.771 C173.067,125.357 172.896,125.1 172.609,125.002 C172.483,124.96 172.155,124.939 171.624,124.939 L171.152,124.939 L171.152,128.466 C172.696,128.466 173.602,128.435 173.869,128.373 C174.332,128.268 174.596,127.825 174.658,127.042 C174.673,126.868 174.719,126.781 174.795,126.781 C174.866,126.781 174.901,126.855 174.901,127.003" id="Fill-18" fill="#184D3A"></path>
        <path d="M181.683,126.645 C181.683,127.249 181.452,127.762 180.993,128.187 C180.532,128.612 179.979,128.824 179.334,128.824 C178.955,128.824 178.502,128.709 177.976,128.476 C177.834,128.413 177.73,128.382 177.66,128.382 C177.575,128.382 177.522,128.479 177.501,128.673 C177.495,128.774 177.449,128.824 177.365,128.824 C177.294,128.824 177.259,128.782 177.259,128.698 C177.259,128.642 177.263,128.599 177.27,128.571 C177.326,128.144 177.354,127.747 177.354,127.381 C177.354,127.312 177.347,127.115 177.333,126.792 C177.326,126.75 177.322,126.693 177.322,126.624 C177.322,126.518 177.365,126.465 177.449,126.465 C177.519,126.465 177.568,126.55 177.596,126.72 C177.779,127.983 178.372,128.613 179.375,128.613 C179.804,128.613 180.136,128.493 180.371,128.25 C180.606,128.008 180.724,127.666 180.724,127.223 C180.724,126.831 180.609,126.495 180.382,126.218 C180.152,125.941 179.762,125.665 179.207,125.392 C178.54,125.062 178.078,124.742 177.817,124.433 C177.558,124.124 177.428,123.742 177.428,123.286 C177.428,122.703 177.616,122.222 177.991,121.843 C178.367,121.464 178.842,121.274 179.418,121.274 C179.656,121.274 179.986,121.355 180.408,121.516 C180.556,121.572 180.664,121.601 180.734,121.601 C180.812,121.601 180.862,121.587 180.887,121.558 C180.912,121.531 180.935,121.457 180.955,121.337 C180.97,121.267 181.008,121.232 181.071,121.232 C181.142,121.232 181.177,121.274 181.177,121.358 C181.177,121.415 181.174,121.457 181.166,121.484 C181.145,121.653 181.134,121.857 181.134,122.095 C181.134,122.432 181.152,122.699 181.188,122.896 L181.197,123.064 C181.204,123.141 181.174,123.18 181.103,123.18 C181.025,123.18 180.973,123.099 180.944,122.938 C180.868,122.524 180.685,122.178 180.397,121.9 C180.109,121.624 179.787,121.484 179.428,121.484 C179.077,121.484 178.798,121.597 178.591,121.821 C178.384,122.046 178.28,122.351 178.28,122.737 C178.28,123.187 178.431,123.549 178.733,123.822 C178.902,123.977 179.268,124.194 179.828,124.475 C180.488,124.805 180.962,125.14 181.25,125.481 C181.538,125.821 181.683,126.21 181.683,126.645" id="Fill-19" fill="#184D3A"></path>
        <path d="M189.632,123.264 C189.632,123.355 189.59,123.401 189.506,123.401 C189.422,123.401 189.362,123.31 189.327,123.128 C189.313,123.001 189.299,122.875 189.285,122.748 C189.236,122.496 189.154,122.282 189.042,122.106 C188.896,121.874 188.652,121.727 188.315,121.663 C188.099,121.622 187.923,121.604 187.79,121.611 C187.459,121.62 187.259,121.627 187.189,121.632 L187.189,127.992 C187.189,128.245 187.256,128.403 187.39,128.466 C187.459,128.501 187.656,128.522 187.979,128.529 C188.063,128.536 188.105,128.566 188.105,128.619 C188.105,128.678 188.05,128.709 187.937,128.709 C187.881,128.709 187.831,128.705 187.79,128.698 C187.368,128.684 187.069,128.677 186.895,128.677 C186.663,128.677 186.445,128.683 186.242,128.692 C186.037,128.703 185.778,128.709 185.463,128.709 C185.301,128.709 185.22,128.68 185.22,128.624 C185.22,128.561 185.37,128.525 185.673,128.518 C185.891,128.518 186.031,128.473 186.094,128.381 C186.129,128.325 186.146,128.181 186.146,127.949 L186.146,121.632 C185.452,121.639 185.021,121.674 184.852,121.737 C184.409,121.899 184.15,122.33 184.072,123.032 C184.051,123.243 184.002,123.348 183.925,123.348 C183.84,123.348 183.799,123.275 183.799,123.128 C183.799,123.05 183.802,122.973 183.809,122.896 L183.83,122.654 C183.851,122.33 183.883,121.906 183.925,121.379 L184.398,121.379 L186.547,121.411 C186.8,121.418 187.193,121.418 187.727,121.411 L189.475,121.379 C189.488,121.773 189.534,122.355 189.611,123.128 C189.611,123.148 189.615,123.175 189.622,123.207 C189.628,123.238 189.632,123.257 189.632,123.264" id="Fill-20" fill="#184D3A"></path>
        <path d="M199.289,128.629 C199.289,128.689 199.216,128.719 199.068,128.719 L198.952,128.719 C198.854,128.719 198.677,128.719 198.418,128.719 C198.158,128.719 197.959,128.719 197.819,128.719 C197.609,128.719 197.364,128.719 197.085,128.719 C196.798,128.719 196.609,128.719 196.519,128.719 L196.443,128.719 C196.297,128.719 196.226,128.687 196.226,128.624 C196.226,128.554 196.326,128.518 196.529,128.518 C196.888,128.518 197.105,128.48 197.183,128.402 C197.217,128.368 197.235,128.132 197.235,127.696 L197.235,122.233 C197.235,122.239 197.192,122.362 197.109,122.601 C196.827,123.45 196.417,124.727 195.883,126.432 L195.393,128.108 C195.295,128.438 195.224,128.603 195.183,128.603 C195.133,128.603 195.08,128.518 195.024,128.35 C194.821,127.712 194.247,126.117 193.305,123.567 L192.886,122.443 C192.886,122.576 192.886,122.759 192.886,122.991 L192.886,126.413 C192.886,127.697 192.896,128.346 192.919,128.361 C192.967,128.452 193.135,128.498 193.423,128.498 C193.655,128.498 193.771,128.533 193.771,128.602 C193.771,128.68 193.696,128.719 193.549,128.719 C193.457,128.719 193.374,128.712 193.296,128.698 C193.198,128.684 193.11,128.677 193.033,128.677 L191.822,128.719 C191.696,128.719 191.633,128.687 191.633,128.624 C191.633,128.554 191.833,128.515 192.232,128.507 C192.402,128.507 192.5,128.48 192.528,128.424 C192.555,128.368 192.569,128.185 192.569,127.875 L192.569,122.824 C192.569,122.24 192.563,121.924 192.549,121.875 C192.521,121.776 192.461,121.71 192.369,121.674 C192.279,121.639 192.082,121.611 191.78,121.59 C191.668,121.583 191.612,121.551 191.612,121.495 C191.612,121.418 191.714,121.379 191.92,121.379 C191.949,121.379 192.009,121.379 192.102,121.379 L192.655,121.379 C193.074,121.379 193.369,121.377 193.539,121.371 C193.574,121.463 193.778,122.015 194.15,123.028 C194.311,123.45 194.76,124.679 195.496,126.717 C195.629,126.259 195.765,125.81 195.904,125.366 L197.031,121.887 C197.1,121.687 197.162,121.521 197.215,121.39 L198.776,121.379 C199.008,121.379 199.138,121.39 199.173,121.412 C199.207,121.432 199.226,121.464 199.226,121.505 C199.226,121.577 199.166,121.611 199.046,121.611 C198.851,121.611 198.717,121.619 198.646,121.633 C198.478,121.661 198.362,121.717 198.299,121.801 C198.264,121.851 198.246,122.262 198.246,123.037 L198.246,127.949 C198.246,128.231 198.273,128.396 198.33,128.445 C198.422,128.508 198.65,128.54 199.015,128.54 L199.078,128.54 C199.218,128.54 199.289,128.57 199.289,128.629" id="Fill-21" fill="#184D3A"></path>
        <path d="M206.922,127.003 C206.922,127.031 206.915,127.203 206.9,127.519 C206.888,127.835 206.88,128.136 206.88,128.424 L206.88,128.771 C206.192,128.73 204.831,128.709 202.794,128.709 C202.549,128.709 202.306,128.709 202.068,128.709 C201.829,128.709 201.668,128.709 201.583,128.709 L201.479,128.709 C201.345,128.709 201.277,128.68 201.277,128.623 C201.277,128.587 201.3,128.564 201.342,128.558 C201.363,128.558 201.496,128.548 201.742,128.529 C201.924,128.515 202.034,128.476 202.073,128.413 C202.112,128.35 202.132,128.184 202.132,127.917 L202.132,121.981 C202.132,121.776 202.102,121.655 202.041,121.616 C201.981,121.578 201.791,121.558 201.467,121.558 C201.354,121.558 201.3,121.528 201.3,121.469 C201.3,121.409 201.377,121.379 201.531,121.379 L203.332,121.379 C203.395,121.379 203.791,121.379 204.521,121.379 C205.252,121.379 205.743,121.379 205.996,121.379 C206.207,121.379 206.399,121.365 206.574,121.337 C206.589,121.639 206.62,122.057 206.67,122.59 L206.712,123.043 C206.719,123.078 206.723,123.124 206.723,123.18 C206.723,123.251 206.69,123.286 206.627,123.286 C206.55,123.286 206.494,123.197 206.46,123.02 C206.326,122.384 206.107,121.981 205.807,121.812 C205.582,121.685 204.992,121.622 204.037,121.622 L203.174,121.622 L203.174,124.717 L203.427,124.717 C204.213,124.717 204.692,124.658 204.863,124.538 C205.036,124.419 205.153,124.071 205.217,123.496 C205.231,123.348 205.27,123.275 205.332,123.275 C205.41,123.275 205.448,123.337 205.448,123.464 C205.448,123.591 205.441,123.777 205.427,124.023 C205.413,124.268 205.406,124.454 205.406,124.581 C205.406,125.332 205.417,125.848 205.439,126.129 C205.445,126.198 205.448,126.258 205.448,126.308 C205.448,126.399 205.411,126.444 205.333,126.444 C205.284,126.444 205.252,126.414 205.233,126.355 C205.217,126.295 205.187,126.1 205.145,125.771 C205.088,125.357 204.917,125.1 204.631,125.002 C204.504,124.96 204.176,124.939 203.646,124.939 L203.174,124.939 L203.174,128.466 C204.719,128.466 205.624,128.435 205.891,128.373 C206.354,128.268 206.617,127.825 206.681,127.042 C206.694,126.868 206.739,126.781 206.817,126.781 C206.888,126.781 206.922,126.855 206.922,127.003" id="Fill-22" fill="#184D3A"></path>
        <path d="M215.536,121.484 C215.536,121.555 215.448,121.587 215.273,121.579 L214.852,121.579 C214.739,121.579 214.673,121.599 214.651,121.637 C214.631,121.675 214.621,121.793 214.621,121.99 L214.621,128.046 C214.621,128.418 214.616,128.635 214.609,128.698 C214.603,128.761 214.582,128.793 214.547,128.793 C214.504,128.793 214.455,128.754 214.4,128.676 L213.055,126.705 C212.274,125.556 211.326,124.121 210.207,122.4 L210.207,128.296 C210.216,128.389 210.269,128.447 210.368,128.471 C210.467,128.496 210.704,128.511 211.081,128.518 C211.173,128.518 211.219,128.547 211.219,128.603 C211.219,128.673 211.128,128.709 210.945,128.709 C210.882,128.709 210.681,128.698 210.346,128.677 C210.232,128.67 210.124,128.666 210.019,128.666 C210.025,128.666 209.965,128.673 209.834,128.687 C209.703,128.701 209.505,128.709 209.24,128.709 L209.134,128.709 C208.973,128.709 208.892,128.677 208.892,128.613 C208.892,128.55 208.962,128.518 209.103,128.518 C209.518,128.511 209.757,128.485 209.824,128.439 C209.89,128.394 209.924,128.245 209.924,127.991 L209.924,122.792 C209.924,122.208 209.805,121.843 209.566,121.695 C209.453,121.626 209.253,121.59 208.966,121.59 C208.783,121.59 208.69,121.553 208.69,121.479 C208.69,121.413 208.745,121.379 208.851,121.379 C208.99,121.379 209.169,121.386 209.387,121.4 C209.604,121.415 209.72,121.421 209.734,121.421 C209.756,121.421 209.854,121.418 210.029,121.411 C210.261,121.411 210.485,121.4 210.703,121.379 L214.336,126.802 L214.336,122.116 C214.336,121.899 214.332,121.767 214.324,121.722 C214.318,121.676 214.29,121.641 214.241,121.616 C214.192,121.592 214.022,121.579 213.735,121.579 C213.482,121.579 213.357,121.548 213.357,121.484 C213.357,121.415 213.44,121.379 213.609,121.379 L213.978,121.379 C214.068,121.379 214.167,121.379 214.272,121.379 C214.385,121.379 214.451,121.379 214.473,121.379 C214.479,121.379 214.543,121.379 214.661,121.379 C214.774,121.379 214.88,121.379 214.978,121.379 L215.305,121.379 C215.46,121.379 215.536,121.415 215.536,121.484" id="Fill-23" fill="#184D3A"></path>
        <path d="M223.318,123.264 C223.318,123.355 223.276,123.401 223.191,123.401 C223.108,123.401 223.047,123.31 223.012,123.128 C222.999,123.001 222.984,122.875 222.971,122.748 C222.921,122.496 222.841,122.282 222.729,122.106 C222.581,121.874 222.339,121.727 222.002,121.663 C221.784,121.622 221.608,121.604 221.475,121.611 C221.146,121.62 220.945,121.627 220.875,121.632 L220.875,127.992 C220.875,128.245 220.942,128.403 221.075,128.466 C221.146,128.501 221.343,128.522 221.665,128.529 C221.748,128.536 221.791,128.566 221.791,128.619 C221.791,128.678 221.734,128.709 221.622,128.709 C221.566,128.709 221.518,128.705 221.475,128.698 C221.055,128.684 220.757,128.677 220.58,128.677 C220.349,128.677 220.131,128.683 219.928,128.692 C219.724,128.703 219.465,128.709 219.148,128.709 C218.986,128.709 218.905,128.68 218.905,128.624 C218.905,128.561 219.058,128.525 219.358,128.518 C219.576,128.518 219.717,128.473 219.779,128.381 C219.815,128.325 219.833,128.181 219.833,127.949 L219.833,121.632 C219.138,121.639 218.706,121.674 218.538,121.737 C218.095,121.899 217.836,122.33 217.758,123.032 C217.737,123.243 217.688,123.348 217.611,123.348 C217.526,123.348 217.484,123.275 217.484,123.128 C217.484,123.05 217.488,122.973 217.494,122.896 L217.516,122.654 C217.537,122.33 217.568,121.906 217.611,121.379 L218.085,121.379 L220.232,121.411 C220.485,121.418 220.879,121.418 221.412,121.411 L223.161,121.379 C223.174,121.773 223.221,122.355 223.297,123.128 C223.297,123.148 223.301,123.175 223.308,123.207 C223.314,123.238 223.318,123.257 223.318,123.264" id="Fill-24" fill="#184D3A"></path>
        <path d="M236.564,128.629 C236.564,128.689 236.491,128.719 236.344,128.719 L236.229,128.719 C236.131,128.719 235.952,128.719 235.694,128.719 C235.435,128.719 235.235,128.719 235.096,128.719 C234.886,128.719 234.641,128.719 234.361,128.719 C234.074,128.719 233.886,128.719 233.795,128.719 L233.72,128.719 C233.574,128.719 233.501,128.687 233.501,128.624 C233.501,128.554 233.602,128.518 233.806,128.518 C234.164,128.518 234.382,128.48 234.459,128.402 C234.494,128.368 234.511,128.132 234.511,127.696 L234.511,122.233 C234.511,122.239 234.47,122.362 234.386,122.601 C234.103,123.45 233.694,124.727 233.158,126.432 L232.669,128.108 C232.571,128.438 232.501,128.603 232.458,128.603 C232.41,128.603 232.356,128.518 232.301,128.35 C232.098,127.712 231.524,126.117 230.581,123.567 L230.162,122.443 C230.162,122.576 230.162,122.759 230.162,122.991 L230.162,126.413 C230.162,127.697 230.174,128.346 230.194,128.361 C230.243,128.452 230.412,128.498 230.7,128.498 C230.931,128.498 231.046,128.533 231.046,128.602 C231.046,128.68 230.974,128.719 230.826,128.719 C230.735,128.719 230.65,128.712 230.572,128.698 C230.475,128.684 230.387,128.677 230.31,128.677 L229.099,128.719 C228.973,128.719 228.909,128.687 228.909,128.624 C228.909,128.554 229.11,128.515 229.51,128.507 C229.678,128.507 229.776,128.48 229.804,128.424 C229.833,128.368 229.847,128.185 229.847,127.875 L229.847,122.824 C229.847,122.24 229.839,121.924 229.825,121.875 C229.797,121.776 229.737,121.71 229.646,121.674 C229.555,121.639 229.358,121.611 229.057,121.59 C228.944,121.583 228.889,121.551 228.889,121.495 C228.889,121.418 228.99,121.379 229.197,121.379 C229.226,121.379 229.286,121.379 229.379,121.379 L229.932,121.379 C230.352,121.379 230.646,121.377 230.815,121.371 C230.851,121.463 231.055,122.015 231.427,123.028 C231.587,123.45 232.035,124.679 232.772,126.717 C232.905,126.259 233.041,125.81 233.182,125.366 L234.307,121.887 C234.376,121.687 234.438,121.521 234.493,121.39 L236.054,121.379 C236.283,121.379 236.415,121.39 236.449,121.412 C236.484,121.432 236.502,121.464 236.502,121.505 C236.502,121.577 236.442,121.611 236.322,121.611 C236.126,121.611 235.993,121.619 235.923,121.633 C235.754,121.661 235.638,121.717 235.574,121.801 C235.54,121.851 235.522,122.262 235.522,123.037 L235.522,127.949 C235.522,128.231 235.55,128.396 235.606,128.445 C235.698,128.508 235.926,128.54 236.291,128.54 L236.354,128.54 C236.494,128.54 236.564,128.57 236.564,128.629" id="Fill-25" fill="#184D3A"></path>
        <path d="M242.241,126.107 C242.128,125.791 241.938,125.268 241.674,124.538 L241.168,123.078 C240.871,123.855 240.516,124.865 240.1,126.107 L242.241,126.107 Z M245.094,128.629 C245.094,128.689 245.042,128.719 244.937,128.719 C244.866,128.719 244.803,128.715 244.747,128.709 L243.41,128.666 L242.072,128.709 C242.022,128.715 241.971,128.719 241.914,128.719 C241.773,128.719 241.703,128.683 241.703,128.608 C241.703,128.528 241.798,128.487 241.988,128.487 C242.605,128.481 242.915,128.418 242.915,128.302 C242.915,128.295 242.907,128.268 242.894,128.219 L242.807,127.94 L242.754,127.794 C242.69,127.575 242.536,127.095 242.289,126.349 L240.04,126.349 C239.618,127.473 239.408,128.119 239.408,128.287 C239.408,128.385 239.45,128.445 239.534,128.466 C239.556,128.473 239.73,128.487 240.062,128.508 C240.265,128.515 240.366,128.55 240.366,128.613 C240.366,128.684 240.275,128.719 240.093,128.719 C239.77,128.719 239.394,128.705 238.966,128.677 C238.86,128.67 238.752,128.666 238.639,128.666 C238.527,128.666 238.418,128.677 238.313,128.701 C238.257,128.713 238.211,128.719 238.175,128.719 C238.077,128.719 238.029,128.687 238.029,128.624 C238.029,128.561 238.14,128.525 238.359,128.518 C238.581,128.511 238.74,128.477 238.84,128.418 C238.938,128.358 239.015,128.244 239.07,128.075 C239.974,125.483 240.709,123.401 241.276,121.83 C241.292,121.748 241.326,121.654 241.375,121.55 L241.42,121.358 C241.44,121.281 241.469,121.242 241.503,121.242 C241.523,121.242 241.542,121.263 241.557,121.306 C241.647,121.579 241.854,122.151 242.178,123.022 C242.43,123.703 243.058,125.413 244.062,128.151 C244.119,128.309 244.19,128.41 244.278,128.453 C244.366,128.497 244.547,128.522 244.82,128.529 C245.003,128.536 245.094,128.57 245.094,128.629 L245.094,128.629 Z" id="Fill-26" fill="#184D3A"></path>
        <path d="M253.022,121.484 C253.022,121.555 252.936,121.587 252.761,121.579 L252.339,121.579 C252.227,121.579 252.159,121.599 252.139,121.637 C252.117,121.675 252.107,121.793 252.107,121.99 L252.107,128.046 C252.107,128.418 252.104,128.635 252.096,128.698 C252.09,128.761 252.068,128.793 252.034,128.793 C251.992,128.793 251.943,128.754 251.887,128.676 L250.541,126.705 C249.761,125.556 248.812,124.121 247.695,122.4 L247.695,128.296 C247.702,128.389 247.756,128.447 247.854,128.471 C247.953,128.496 248.191,128.511 248.568,128.518 C248.66,128.518 248.706,128.547 248.706,128.603 C248.706,128.673 248.615,128.709 248.433,128.709 C248.369,128.709 248.169,128.698 247.832,128.677 C247.72,128.67 247.61,128.666 247.506,128.666 C247.513,128.666 247.451,128.673 247.32,128.687 C247.191,128.701 246.993,128.709 246.726,128.709 L246.621,128.709 C246.459,128.709 246.379,128.677 246.379,128.613 C246.379,128.55 246.448,128.518 246.59,128.518 C247.003,128.511 247.244,128.485 247.311,128.439 C247.377,128.394 247.41,128.245 247.41,127.991 L247.41,122.792 C247.41,122.208 247.291,121.843 247.053,121.695 C246.94,121.626 246.74,121.59 246.452,121.59 C246.27,121.59 246.179,121.553 246.179,121.479 C246.179,121.413 246.23,121.379 246.337,121.379 C246.477,121.379 246.656,121.386 246.874,121.4 C247.091,121.415 247.207,121.421 247.222,121.421 C247.242,121.421 247.341,121.418 247.516,121.411 C247.747,121.411 247.972,121.4 248.189,121.379 L251.822,126.802 L251.822,122.116 C251.822,121.899 251.819,121.767 251.813,121.722 C251.806,121.676 251.777,121.641 251.729,121.616 C251.679,121.592 251.511,121.579 251.223,121.579 C250.971,121.579 250.843,121.548 250.843,121.484 C250.843,121.415 250.929,121.379 251.097,121.379 L251.465,121.379 C251.557,121.379 251.654,121.379 251.76,121.379 C251.872,121.379 251.939,121.379 251.959,121.379 C251.967,121.379 252.03,121.379 252.149,121.379 C252.262,121.379 252.366,121.379 252.466,121.379 L252.792,121.379 C252.945,121.379 253.022,121.415 253.022,121.484" id="Fill-27" fill="#184D3A"></path>
        <path d="M258.753,126.107 C258.639,125.791 258.448,125.268 258.184,124.538 L257.679,123.078 C257.382,123.855 257.026,124.865 256.611,126.107 L258.753,126.107 Z M261.605,128.629 C261.605,128.689 261.552,128.719 261.448,128.719 C261.377,128.719 261.314,128.715 261.258,128.709 L259.921,128.666 L258.583,128.709 C258.534,128.715 258.481,128.719 258.426,128.719 C258.285,128.719 258.215,128.683 258.215,128.608 C258.215,128.528 258.31,128.487 258.498,128.487 C259.117,128.481 259.425,128.418 259.425,128.302 C259.425,128.295 259.418,128.268 259.403,128.219 L259.318,127.94 L259.264,127.794 C259.2,127.575 259.047,127.095 258.802,126.349 L256.55,126.349 C256.13,127.473 255.919,128.119 255.919,128.287 C255.919,128.385 255.961,128.445 256.045,128.466 C256.066,128.473 256.242,128.487 256.571,128.508 C256.775,128.515 256.878,128.55 256.878,128.613 C256.878,128.684 256.786,128.719 256.604,128.719 C256.28,128.719 255.905,128.705 255.478,128.677 C255.372,128.67 255.263,128.666 255.149,128.666 C255.037,128.666 254.929,128.677 254.824,128.701 C254.767,128.713 254.722,128.719 254.688,128.719 C254.589,128.719 254.539,128.687 254.539,128.624 C254.539,128.561 254.649,128.525 254.871,128.518 C255.093,128.511 255.252,128.477 255.35,128.418 C255.449,128.358 255.525,128.244 255.582,128.075 C256.485,125.483 257.221,123.401 257.787,121.83 C257.804,121.748 257.836,121.654 257.885,121.55 L257.93,121.358 C257.951,121.281 257.979,121.242 258.015,121.242 C258.035,121.242 258.054,121.263 258.066,121.306 C258.158,121.579 258.365,122.151 258.688,123.022 C258.941,123.703 259.569,125.413 260.573,128.151 C260.629,128.309 260.701,128.41 260.789,128.453 C260.876,128.497 261.058,128.522 261.332,128.529 C261.515,128.536 261.605,128.57 261.605,128.629 L261.605,128.629 Z" id="Fill-28" fill="#184D3A"></path>
        <path d="M269.997,126.485 C269.997,126.543 269.966,126.571 269.902,126.571 L269.661,126.571 C269.338,126.557 269.155,126.613 269.113,126.739 C269.085,126.822 269.07,127.127 269.07,127.65 L269.07,127.986 C268.714,128.293 268.367,128.509 268.034,128.635 C267.7,128.761 267.302,128.824 266.84,128.824 C265.729,128.824 264.849,128.493 264.195,127.829 C263.543,127.166 263.217,126.266 263.217,125.128 C263.217,123.977 263.536,123.047 264.175,122.338 C264.813,121.629 265.656,121.274 266.702,121.274 C267.158,121.274 267.657,121.4 268.197,121.653 C268.358,121.73 268.492,121.769 268.598,121.769 C268.73,121.769 268.818,121.685 268.86,121.516 C268.896,121.418 268.938,121.369 268.987,121.369 C269.043,121.369 269.07,121.397 269.07,121.453 C269.07,121.474 269.065,121.548 269.054,121.674 C269.016,122.074 268.997,122.362 268.997,122.538 L268.997,123.222 C269.005,123.468 269.009,123.576 269.009,123.549 C268.993,123.717 268.948,123.801 268.871,123.801 C268.809,123.801 268.772,123.753 268.766,123.653 C268.73,122.969 268.534,122.431 268.176,122.04 C267.818,121.649 267.348,121.453 266.766,121.453 C266.034,121.453 265.458,121.781 265.033,122.435 C264.607,123.09 264.396,123.981 264.396,125.108 C264.396,126.191 264.611,127.053 265.044,127.69 C265.476,128.326 266.059,128.645 266.797,128.645 C267.358,128.645 267.744,128.484 267.955,128.163 C268.061,128.002 268.113,127.712 268.113,127.293 C268.113,126.944 268.08,126.738 268.014,126.675 C267.946,126.612 267.717,126.584 267.322,126.591 C267.225,126.591 267.161,126.586 267.134,126.575 C267.106,126.565 267.092,126.542 267.092,126.507 C267.092,126.43 267.168,126.392 267.322,126.392 L267.514,126.392 C267.618,126.399 267.99,126.399 268.629,126.392 L269.514,126.392 C269.563,126.392 269.615,126.392 269.671,126.392 C269.729,126.392 269.767,126.392 269.787,126.392 C269.928,126.392 269.997,126.423 269.997,126.485" id="Fill-29" fill="#184D3A"></path>
        <path d="M277.316,127.003 C277.316,127.031 277.311,127.203 277.295,127.519 C277.281,127.835 277.274,128.136 277.274,128.424 L277.274,128.771 C276.586,128.73 275.224,128.709 273.188,128.709 C272.943,128.709 272.7,128.709 272.461,128.709 C272.224,128.709 272.063,128.709 271.978,128.709 L271.871,128.709 C271.738,128.709 271.672,128.68 271.672,128.623 C271.672,128.587 271.692,128.564 271.734,128.558 C271.757,128.558 271.89,128.548 272.136,128.529 C272.317,128.515 272.429,128.476 272.468,128.413 C272.506,128.35 272.525,128.184 272.525,127.917 L272.525,121.981 C272.525,121.776 272.495,121.655 272.436,121.616 C272.376,121.578 272.185,121.558 271.861,121.558 C271.749,121.558 271.692,121.528 271.692,121.469 C271.692,121.409 271.771,121.379 271.925,121.379 L273.726,121.379 C273.789,121.379 274.186,121.379 274.916,121.379 C275.646,121.379 276.137,121.379 276.39,121.379 C276.601,121.379 276.793,121.365 276.97,121.337 C276.982,121.639 277.014,122.057 277.064,122.59 L277.106,123.043 C277.112,123.078 277.116,123.124 277.116,123.18 C277.116,123.251 277.085,123.286 277.021,123.286 C276.943,123.286 276.888,123.197 276.853,123.02 C276.719,122.384 276.502,121.981 276.2,121.812 C275.976,121.685 275.386,121.622 274.431,121.622 L273.567,121.622 L273.567,124.717 L273.819,124.717 C274.606,124.717 275.085,124.658 275.258,124.538 C275.429,124.419 275.548,124.071 275.611,123.496 C275.624,123.348 275.663,123.275 275.727,123.275 C275.804,123.275 275.842,123.337 275.842,123.464 C275.842,123.591 275.834,123.777 275.821,124.023 C275.807,124.268 275.8,124.454 275.8,124.581 C275.8,125.332 275.811,125.848 275.834,126.129 C275.84,126.198 275.842,126.258 275.842,126.308 C275.842,126.399 275.804,126.444 275.728,126.444 C275.678,126.444 275.645,126.414 275.627,126.355 C275.609,126.295 275.58,126.1 275.538,125.771 C275.482,125.357 275.311,125.1 275.025,125.002 C274.898,124.96 274.571,124.939 274.039,124.939 L273.567,124.939 L273.567,128.466 C275.111,128.466 276.018,128.435 276.284,128.373 C276.748,128.268 277.011,127.825 277.073,127.042 C277.089,126.868 277.134,126.781 277.21,126.781 C277.281,126.781 277.316,126.855 277.316,127.003" id="Fill-30" fill="#184D3A"></path>
        <path d="M287.024,128.629 C287.024,128.689 286.952,128.719 286.805,128.719 L286.689,128.719 C286.592,128.719 286.413,128.719 286.154,128.719 C285.896,128.719 285.695,128.719 285.556,128.719 C285.347,128.719 285.102,128.719 284.82,128.719 C284.534,128.719 284.345,128.719 284.254,128.719 L284.181,128.719 C284.034,128.719 283.961,128.687 283.961,128.624 C283.961,128.554 284.063,128.518 284.266,128.518 C284.625,128.518 284.842,128.48 284.919,128.402 C284.954,128.368 284.972,128.132 284.972,127.696 L284.972,122.233 C284.972,122.239 284.93,122.362 284.846,122.601 C284.563,123.45 284.154,124.727 283.619,126.432 L283.129,128.108 C283.03,128.438 282.96,128.603 282.918,128.603 C282.869,128.603 282.816,128.518 282.76,128.35 C282.558,127.712 281.984,126.117 281.041,123.567 L280.623,122.443 C280.623,122.576 280.623,122.759 280.623,122.991 L280.623,126.413 C280.623,127.697 280.633,128.346 280.654,128.361 C280.703,128.452 280.872,128.498 281.16,128.498 C281.392,128.498 281.507,128.533 281.507,128.602 C281.507,128.68 281.434,128.719 281.286,128.719 C281.194,128.719 281.111,128.712 281.033,128.698 C280.936,128.684 280.847,128.677 280.77,128.677 L279.56,128.719 C279.433,128.719 279.37,128.687 279.37,128.624 C279.37,128.554 279.569,128.515 279.97,128.507 C280.139,128.507 280.237,128.48 280.265,128.424 C280.292,128.368 280.307,128.185 280.307,127.875 L280.307,122.824 C280.307,122.24 280.3,121.924 280.286,121.875 C280.258,121.776 280.197,121.71 280.106,121.674 C280.016,121.639 279.818,121.611 279.517,121.59 C279.404,121.583 279.349,121.551 279.349,121.495 C279.349,121.418 279.451,121.379 279.657,121.379 C279.687,121.379 279.746,121.379 279.838,121.379 L280.393,121.379 C280.812,121.379 281.105,121.377 281.276,121.371 C281.311,121.463 281.514,122.015 281.888,123.028 C282.047,123.45 282.495,124.679 283.232,126.717 C283.366,126.259 283.502,125.81 283.641,125.366 L284.768,121.887 C284.837,121.687 284.898,121.521 284.952,121.39 L286.514,121.379 C286.743,121.379 286.875,121.39 286.91,121.412 C286.944,121.432 286.962,121.464 286.962,121.505 C286.962,121.577 286.901,121.611 286.783,121.611 C286.586,121.611 286.453,121.619 286.382,121.633 C286.214,121.661 286.099,121.717 286.035,121.801 C286,121.851 285.983,122.262 285.983,123.037 L285.983,127.949 C285.983,128.231 286.011,128.396 286.067,128.445 C286.158,128.508 286.387,128.54 286.752,128.54 L286.814,128.54 C286.955,128.54 287.024,128.57 287.024,128.629" id="Fill-31" fill="#184D3A"></path>
        <path d="M294.659,127.003 C294.659,127.031 294.652,127.203 294.638,127.519 C294.624,127.835 294.616,128.136 294.616,128.424 L294.616,128.771 C293.929,128.73 292.567,128.709 290.531,128.709 C290.285,128.709 290.044,128.709 289.805,128.709 C289.566,128.709 289.404,128.709 289.32,128.709 L289.215,128.709 C289.082,128.709 289.016,128.68 289.016,128.623 C289.016,128.587 289.036,128.564 289.079,128.558 C289.1,128.558 289.232,128.548 289.478,128.529 C289.66,128.515 289.771,128.476 289.811,128.413 C289.849,128.35 289.867,128.184 289.867,127.917 L289.867,121.981 C289.867,121.776 289.838,121.655 289.777,121.616 C289.719,121.578 289.526,121.558 289.204,121.558 C289.092,121.558 289.036,121.528 289.036,121.469 C289.036,121.409 289.113,121.379 289.268,121.379 L291.069,121.379 C291.131,121.379 291.528,121.379 292.259,121.379 C292.988,121.379 293.48,121.379 293.732,121.379 C293.943,121.379 294.136,121.365 294.312,121.337 C294.325,121.639 294.358,122.057 294.406,122.59 L294.449,123.043 C294.455,123.078 294.459,123.124 294.459,123.18 C294.459,123.251 294.428,123.286 294.364,123.286 C294.287,123.286 294.231,123.197 294.196,123.02 C294.063,122.384 293.845,121.981 293.543,121.812 C293.318,121.685 292.729,121.622 291.774,121.622 L290.911,121.622 L290.911,124.717 L291.164,124.717 C291.949,124.717 292.43,124.658 292.601,124.538 C292.773,124.419 292.891,124.071 292.953,123.496 C292.967,123.348 293.006,123.275 293.069,123.275 C293.146,123.275 293.185,123.337 293.185,123.464 C293.185,123.591 293.179,123.777 293.163,124.023 C293.15,124.268 293.143,124.454 293.143,124.581 C293.143,125.332 293.154,125.848 293.177,126.129 C293.183,126.198 293.185,126.258 293.185,126.308 C293.185,126.399 293.146,126.444 293.069,126.444 C293.021,126.444 292.987,126.414 292.971,126.355 C292.953,126.295 292.924,126.1 292.881,125.771 C292.825,125.357 292.654,125.1 292.367,125.002 C292.241,124.96 291.913,124.939 291.382,124.939 L290.911,124.939 L290.911,128.466 C292.455,128.466 293.361,128.435 293.627,128.373 C294.091,128.268 294.354,127.825 294.418,127.042 C294.431,126.868 294.477,126.781 294.553,126.781 C294.624,126.781 294.659,126.855 294.659,127.003" id="Fill-32" fill="#184D3A"></path>
        <path d="M303.272,121.484 C303.272,121.555 303.186,121.587 303.01,121.579 L302.589,121.579 C302.477,121.579 302.41,121.599 302.389,121.637 C302.367,121.675 302.356,121.793 302.356,121.99 L302.356,128.046 C302.356,128.418 302.354,128.635 302.347,128.698 C302.34,128.761 302.318,128.793 302.283,128.793 C302.241,128.793 302.192,128.754 302.137,128.676 L300.791,126.705 C300.011,125.556 299.063,124.121 297.944,122.4 L297.944,128.296 C297.952,128.389 298.005,128.447 298.104,128.471 C298.204,128.496 298.441,128.511 298.817,128.518 C298.909,128.518 298.956,128.547 298.956,128.603 C298.956,128.673 298.864,128.709 298.682,128.709 C298.618,128.709 298.419,128.698 298.081,128.677 C297.969,128.67 297.861,128.666 297.755,128.666 C297.762,128.666 297.701,128.673 297.571,128.687 C297.44,128.701 297.242,128.709 296.977,128.709 L296.87,128.709 C296.709,128.709 296.628,128.677 296.628,128.613 C296.628,128.55 296.698,128.518 296.84,128.518 C297.254,128.511 297.493,128.485 297.56,128.439 C297.626,128.394 297.661,128.245 297.661,127.991 L297.661,122.792 C297.661,122.208 297.542,121.843 297.303,121.695 C297.189,121.626 296.99,121.59 296.703,121.59 C296.52,121.59 296.428,121.553 296.428,121.479 C296.428,121.413 296.481,121.379 296.586,121.379 C296.728,121.379 296.905,121.386 297.123,121.4 C297.341,121.415 297.457,121.421 297.471,121.421 C297.491,121.421 297.591,121.418 297.766,121.411 C297.998,121.411 298.223,121.4 298.439,121.379 L302.072,126.802 L302.072,122.116 C302.072,121.899 302.069,121.767 302.062,121.722 C302.055,121.676 302.027,121.641 301.979,121.616 C301.928,121.592 301.76,121.579 301.473,121.579 C301.22,121.579 301.094,121.548 301.094,121.484 C301.094,121.415 301.178,121.379 301.347,121.379 L301.715,121.379 C301.805,121.379 301.904,121.379 302.009,121.379 C302.121,121.379 302.188,121.379 302.209,121.379 C302.217,121.379 302.28,121.379 302.398,121.379 C302.512,121.379 302.616,121.379 302.715,121.379 L303.042,121.379 C303.194,121.379 303.272,121.415 303.272,121.484" id="Fill-33" fill="#184D3A"></path>
        <path d="M311.056,123.264 C311.056,123.355 311.013,123.401 310.929,123.401 C310.844,123.401 310.784,123.31 310.749,123.128 C310.736,123.001 310.721,122.875 310.707,122.748 C310.658,122.496 310.577,122.282 310.466,122.106 C310.317,121.874 310.075,121.727 309.739,121.663 C309.521,121.622 309.345,121.604 309.212,121.611 C308.882,121.62 308.682,121.627 308.612,121.632 L308.612,127.992 C308.612,128.245 308.679,128.403 308.813,128.466 C308.882,128.501 309.078,128.522 309.402,128.529 C309.485,128.536 309.527,128.566 309.527,128.619 C309.527,128.678 309.473,128.709 309.359,128.709 C309.303,128.709 309.254,128.705 309.212,128.698 C308.791,128.684 308.492,128.677 308.316,128.677 C308.085,128.677 307.867,128.683 307.664,128.692 C307.461,128.703 307.2,128.709 306.885,128.709 C306.723,128.709 306.644,128.68 306.644,128.624 C306.644,128.561 306.793,128.525 307.096,128.518 C307.313,128.518 307.454,128.473 307.517,128.381 C307.552,128.325 307.569,128.181 307.569,127.949 L307.569,121.632 C306.874,121.639 306.442,121.674 306.273,121.737 C305.832,121.899 305.572,122.33 305.495,123.032 C305.474,123.243 305.424,123.348 305.347,123.348 C305.263,123.348 305.221,123.275 305.221,123.128 C305.221,123.05 305.225,122.973 305.23,122.896 L305.252,122.654 C305.273,122.33 305.305,121.906 305.347,121.379 L305.82,121.379 L307.969,121.411 C308.223,121.418 308.615,121.418 309.148,121.411 L310.897,121.379 C310.91,121.773 310.956,122.355 311.033,123.128 C311.033,123.148 311.037,123.175 311.044,123.207 C311.05,123.238 311.056,123.257 311.056,123.264" id="Fill-34" fill="#184D3A"></path>
        <polygon id="Fill-35" fill="#184D3A" points="146.935 117.744 311.596 117.744 311.596 117.242 146.935 117.242"></polygon>
        <polygon id="Fill-36" fill="#184D3A" points="146.935 135.39 311.596 135.39 311.596 134.889 146.935 134.889"></polygon>
        <path d="M232.424,30.737 L236.621,44.938 L230.977,50.659 L225.303,44.938 L229.5,30.737 C229.5,30.737 228.042,29.257 224.871,28.756 C224.871,28.756 229.078,25.371 230.772,16.987 L231.235,16.987 C232.931,25.371 237.053,28.756 237.053,28.756 C233.883,29.257 232.424,30.737 232.424,30.737" id="Fill-37" fill="#F6BF3D"></path>
        <path d="M149.844,204.875 L152.35,204.875 C153.284,204.875 154.099,204.728 154.794,204.436 C155.489,204.144 156.065,203.761 156.521,203.289 C156.976,202.815 157.318,202.275 157.545,201.668 C157.773,201.06 157.887,200.435 157.887,199.793 C157.887,199.15 157.773,198.525 157.545,197.918 C157.318,197.31 156.976,196.769 156.521,196.296 C156.065,195.823 155.489,195.441 154.794,195.149 C154.099,194.857 153.284,194.711 152.35,194.711 L149.844,194.711 L149.844,204.875 Z M148.582,193.589 L152.7,193.589 C153.471,193.589 154.245,193.717 155.022,193.974 C155.799,194.232 156.5,194.621 157.125,195.14 C157.75,195.66 158.255,196.308 158.641,197.085 C159.026,197.862 159.219,198.764 159.219,199.793 C159.219,200.833 159.026,201.738 158.641,202.508 C158.255,203.28 157.75,203.925 157.125,204.445 C156.5,204.964 155.799,205.353 155.022,205.61 C154.245,205.868 153.471,205.996 152.7,205.996 L148.582,205.996 L148.582,193.589 L148.582,193.589 Z" id="Fill-38" fill="#1A1919"></path>
        <path d="M174.535,199.801 C174.535,199.078 174.417,198.39 174.184,197.737 C173.95,197.084 173.611,196.509 173.167,196.013 C172.724,195.518 172.183,195.125 171.547,194.833 C170.91,194.541 170.194,194.395 169.4,194.395 C168.605,194.395 167.89,194.541 167.253,194.833 C166.617,195.125 166.076,195.518 165.632,196.013 C165.188,196.509 164.85,197.084 164.616,197.737 C164.382,198.39 164.266,199.078 164.266,199.801 C164.266,200.525 164.382,201.212 164.616,201.866 C164.85,202.519 165.188,203.09 165.632,203.581 C166.076,204.07 166.617,204.461 167.253,204.753 C167.89,205.044 168.605,205.19 169.4,205.19 C170.194,205.19 170.91,205.044 171.547,204.753 C172.183,204.461 172.724,204.07 173.167,203.581 C173.611,203.09 173.95,202.519 174.184,201.866 C174.417,201.212 174.535,200.525 174.535,199.801 Z M175.866,199.793 C175.866,200.739 175.703,201.609 175.375,202.403 C175.048,203.198 174.596,203.884 174.018,204.462 C173.439,205.041 172.756,205.494 171.967,205.821 C171.179,206.147 170.323,206.311 169.4,206.311 C168.477,206.311 167.622,206.147 166.833,205.821 C166.044,205.494 165.361,205.041 164.783,204.462 C164.205,203.884 163.751,203.198 163.425,202.403 C163.098,201.609 162.934,200.739 162.934,199.793 C162.934,198.846 163.098,197.976 163.425,197.181 C163.751,196.387 164.205,195.701 164.783,195.123 C165.361,194.545 166.044,194.091 166.833,193.764 C167.622,193.437 168.477,193.274 169.4,193.274 C170.323,193.274 171.179,193.437 171.967,193.764 C172.756,194.091 173.439,194.545 174.018,195.123 C174.596,195.701 175.048,196.387 175.375,197.181 C175.703,197.976 175.866,198.846 175.866,199.793 L175.866,199.793 Z" id="Fill-39" fill="#1A1919"></path>
        <polyline id="Fill-40" fill="#1A1919" points="189.045 204.156 189.08 204.156 189.08 193.589 190.342 193.589 190.342 205.996 188.764 205.996 181.545 195.324 181.51 195.324 181.51 205.996 180.247 205.996 180.247 193.589 181.824 193.589 189.045 204.156"></polyline>
        <path d="M197.122,201.58 L202.59,201.58 L199.855,194.991 L197.122,201.58 Z M195.3,205.996 L193.915,205.996 L199.277,193.589 L200.504,193.589 L205.831,205.996 L204.43,205.996 L203.063,202.736 L196.649,202.736 L195.3,205.996 L195.3,205.996 Z" id="Fill-41" fill="#1A1919"></path>
        <polyline id="Fill-42" fill="#1A1919" points="212.333 205.996 211.071 205.996 211.071 194.711 206.918 194.711 206.918 193.589 216.486 193.589 216.486 194.711 212.333 194.711 212.333 205.996"></polyline>
        <polyline id="Fill-43" fill="#1A1919" points="221.357 204.875 227.999 204.875 227.999 205.996 220.096 205.996 220.096 193.589 227.788 193.589 227.788 194.711 221.357 194.711 221.357 198.968 227.368 198.968 227.368 200.09 221.357 200.09 221.357 204.875"></polyline>
        <path d="M238.232,195.587 C237.963,195.213 237.619,194.912 237.198,194.684 C236.777,194.457 236.27,194.342 235.674,194.342 C235.369,194.342 235.061,194.389 234.745,194.483 C234.43,194.577 234.143,194.719 233.886,194.912 C233.629,195.105 233.422,195.347 233.264,195.639 C233.106,195.931 233.027,196.276 233.027,196.673 C233.027,197.071 233.104,197.398 233.255,197.655 C233.406,197.912 233.606,198.13 233.857,198.312 C234.108,198.493 234.394,198.642 234.714,198.758 C235.034,198.876 235.369,198.993 235.719,199.109 C236.149,199.25 236.583,199.401 237.021,199.565 C237.457,199.728 237.851,199.941 238.2,200.204 C238.55,200.467 238.835,200.8 239.057,201.203 C239.277,201.606 239.389,202.117 239.389,202.736 C239.389,203.356 239.271,203.89 239.034,204.339 C238.798,204.79 238.491,205.161 238.114,205.453 C237.737,205.745 237.306,205.961 236.821,206.101 C236.337,206.241 235.849,206.311 235.358,206.311 C234.984,206.311 234.61,206.273 234.236,206.197 C233.862,206.121 233.507,206.007 233.168,205.855 C232.829,205.704 232.514,205.511 232.222,205.277 C231.93,205.044 231.672,204.775 231.45,204.471 L232.537,203.665 C232.806,204.109 233.183,204.48 233.667,204.778 C234.151,205.076 234.722,205.224 235.376,205.224 C235.691,205.224 236.013,205.175 236.34,205.076 C236.666,204.976 236.962,204.825 237.225,204.62 C237.487,204.416 237.703,204.165 237.873,203.867 C238.042,203.569 238.127,203.221 238.127,202.824 C238.127,202.392 238.042,202.033 237.873,201.747 C237.703,201.461 237.479,201.22 237.198,201.028 C236.918,200.835 236.597,200.674 236.234,200.545 C235.872,200.418 235.492,200.289 235.096,200.161 C234.687,200.032 234.283,199.886 233.886,199.722 C233.489,199.559 233.133,199.345 232.817,199.083 C232.502,198.82 232.248,198.496 232.055,198.11 C231.862,197.724 231.766,197.252 231.766,196.691 C231.766,196.095 231.886,195.581 232.125,195.149 C232.364,194.716 232.677,194.36 233.063,194.08 C233.448,193.799 233.874,193.595 234.342,193.466 C234.809,193.338 235.271,193.274 235.727,193.274 C236.567,193.274 237.286,193.422 237.882,193.72 C238.478,194.018 238.927,194.372 239.23,194.781 L238.232,195.587" id="Fill-44" fill="#1A1919"></path>
        <path d="M156.179,221.89 C156.179,221.359 156.093,220.853 155.921,220.374 C155.75,219.893 155.501,219.471 155.175,219.107 C154.848,218.743 154.452,218.454 153.984,218.24 C153.516,218.025 152.99,217.919 152.407,217.919 C151.823,217.919 151.297,218.025 150.83,218.24 C150.362,218.454 149.965,218.743 149.639,219.107 C149.313,219.471 149.063,219.893 148.892,220.374 C148.72,220.853 148.634,221.359 148.634,221.89 C148.634,222.421 148.72,222.927 148.892,223.407 C149.063,223.886 149.313,224.306 149.639,224.667 C149.965,225.026 150.362,225.313 150.83,225.528 C151.297,225.742 151.823,225.849 152.407,225.849 C152.99,225.849 153.516,225.742 153.984,225.528 C154.452,225.313 154.848,225.026 155.175,224.667 C155.501,224.306 155.75,223.886 155.921,223.407 C156.093,222.927 156.179,222.421 156.179,221.89 Z M157.157,221.883 C157.157,222.579 157.037,223.218 156.797,223.801 C156.557,224.385 156.224,224.889 155.799,225.314 C155.374,225.74 154.872,226.072 154.293,226.312 C153.713,226.552 153.084,226.672 152.407,226.672 C151.729,226.672 151.1,226.552 150.521,226.312 C149.941,226.072 149.439,225.74 149.014,225.314 C148.589,224.889 148.257,224.385 148.017,223.801 C147.776,223.218 147.656,222.579 147.656,221.883 C147.656,221.188 147.776,220.549 148.017,219.965 C148.257,219.381 148.589,218.878 149.014,218.453 C149.439,218.028 149.941,217.695 150.521,217.455 C151.1,217.214 151.729,217.094 152.407,217.094 C153.084,217.094 153.713,217.214 154.293,217.455 C154.872,217.695 155.374,218.028 155.799,218.453 C156.224,218.878 156.557,219.381 156.797,219.965 C157.037,220.549 157.157,221.188 157.157,221.883 L157.157,221.883 Z" id="Fill-45" fill="#1A1919"></path>
        <polyline id="Fill-46" fill="#1A1919" points="161.303 226.441 160.375 226.441 160.375 217.326 165.873 217.326 165.873 218.15 161.303 218.15 161.303 221.304 165.551 221.304 165.551 222.129 161.303 222.129 161.303 226.441"></polyline>
        <path d="M174.332,221.42 L175.902,221.42 C176.631,221.42 177.185,221.278 177.563,220.995 C177.94,220.712 178.129,220.3 178.129,219.759 C178.129,219.193 177.934,218.779 177.543,218.517 C177.153,218.255 176.606,218.125 175.902,218.125 L174.332,218.125 L174.332,221.42 Z M173.404,217.326 L175.979,217.326 C176.443,217.326 176.863,217.376 177.241,217.474 C177.619,217.573 177.943,217.723 178.213,217.924 C178.483,218.127 178.691,218.379 178.837,218.684 C178.983,218.989 179.056,219.347 179.056,219.759 C179.056,220.171 178.981,220.53 178.831,220.835 C178.681,221.139 178.471,221.392 178.2,221.593 C177.93,221.795 177.604,221.948 177.222,222.05 C176.84,222.154 176.417,222.206 175.954,222.206 L174.332,222.206 L174.332,226.441 L173.404,226.441 L173.404,217.326 L173.404,217.326 Z" id="Fill-47" fill="#1A1919"></path>
        <path d="M183.085,221.381 L184.694,221.381 C185.441,221.381 186.017,221.247 186.42,220.976 C186.823,220.706 187.025,220.3 187.025,219.759 C187.025,219.459 186.969,219.206 186.857,219 C186.746,218.794 186.592,218.627 186.395,218.498 C186.196,218.369 185.956,218.274 185.673,218.214 C185.39,218.154 185.076,218.125 184.733,218.125 L183.085,218.125 L183.085,221.381 Z M183.085,226.441 L182.158,226.441 L182.158,217.326 L184.836,217.326 C185.282,217.326 185.696,217.369 186.079,217.455 C186.461,217.541 186.791,217.68 187.07,217.873 C187.349,218.066 187.565,218.317 187.72,218.627 C187.875,218.935 187.952,219.313 187.952,219.759 C187.952,220.094 187.892,220.399 187.771,220.673 C187.651,220.948 187.488,221.186 187.282,221.388 C187.076,221.589 186.832,221.751 186.549,221.871 C186.266,221.991 185.956,222.068 185.622,222.102 L188.287,226.441 L187.153,226.441 L184.63,222.179 L183.085,222.179 L183.085,226.441 L183.085,226.441 Z" id="Fill-48" fill="#1A1919"></path>
        <polyline id="Fill-49" fill="#1A1919" points="192.085 225.617 196.965 225.617 196.965 226.441 191.158 226.441 191.158 217.326 196.811 217.326 196.811 218.15 192.085 218.15 192.085 221.278 196.501 221.278 196.501 222.102 192.085 222.102 192.085 225.617"></polyline>
        <polygon id="Fill-50" fill="#1A1919" points="199.475 223.686 202.358 223.686 202.358 222.952 199.475 222.952"></polygon>
        <polyline id="Fill-51" fill="#1A1919" points="207.238 226.441 206.312 226.441 206.312 218.15 203.26 218.15 203.26 217.326 210.289 217.326 210.289 218.15 207.238 218.15 207.238 226.441"></polyline>
        <path d="M213.443,223.197 L217.461,223.197 L215.452,218.356 L213.443,223.197 Z M212.104,226.441 L211.088,226.441 L215.027,217.326 L215.929,217.326 L219.843,226.441 L218.813,226.441 L217.809,224.046 L213.096,224.046 L212.104,226.441 L212.104,226.441 Z" id="Fill-52" fill="#1A1919"></path>
        <polyline id="Fill-53" fill="#1A1919" points="225.455 221.008 227.939 217.326 229.047 217.326 226.021 221.665 229.369 226.441 228.21 226.441 225.429 222.335 222.661 226.441 221.502 226.441 224.85 221.652 221.799 217.326 222.957 217.326 225.455 221.008"></polyline>
        <path d="M149.072,239.209 L150.643,239.209 C151.372,239.209 151.926,239.067 152.304,238.784 C152.681,238.501 152.87,238.089 152.87,237.548 C152.87,236.982 152.675,236.568 152.284,236.306 C151.894,236.045 151.347,235.914 150.643,235.914 L149.072,235.914 L149.072,239.209 Z M148.145,235.115 L150.72,235.115 C151.184,235.115 151.604,235.165 151.982,235.263 C152.359,235.362 152.684,235.512 152.954,235.713 C153.224,235.916 153.432,236.169 153.578,236.473 C153.724,236.778 153.797,237.136 153.797,237.548 C153.797,237.961 153.722,238.319 153.572,238.624 C153.421,238.928 153.211,239.181 152.941,239.382 C152.67,239.585 152.344,239.737 151.962,239.839 C151.581,239.943 151.158,239.995 150.694,239.995 L149.072,239.995 L149.072,244.23 L148.145,244.23 L148.145,235.115 L148.145,235.115 Z" id="Fill-54" fill="#1A1919"></path>
        <path d="M157.827,239.17 L159.436,239.17 C160.183,239.17 160.757,239.036 161.161,238.765 C161.564,238.495 161.766,238.089 161.766,237.548 C161.766,237.248 161.71,236.995 161.599,236.789 C161.487,236.583 161.333,236.416 161.135,236.287 C160.938,236.158 160.698,236.063 160.415,236.004 C160.131,235.943 159.818,235.914 159.475,235.914 L157.827,235.914 L157.827,239.17 Z M157.827,244.23 L156.899,244.23 L156.899,235.115 L159.578,235.115 C160.024,235.115 160.438,235.158 160.82,235.244 C161.202,235.33 161.532,235.469 161.811,235.662 C162.09,235.855 162.307,236.106 162.461,236.416 C162.616,236.724 162.693,237.102 162.693,237.548 C162.693,237.883 162.633,238.188 162.513,238.462 C162.393,238.737 162.229,238.975 162.023,239.177 C161.818,239.379 161.573,239.54 161.29,239.66 C161.006,239.78 160.698,239.857 160.363,239.891 L163.028,244.23 L161.895,244.23 L159.372,239.968 L157.827,239.968 L157.827,244.23 L157.827,244.23 Z" id="Fill-55" fill="#1A1919"></path>
        <path d="M173.932,239.679 C173.932,239.148 173.846,238.642 173.675,238.163 C173.503,237.682 173.254,237.26 172.928,236.896 C172.602,236.532 172.205,236.243 171.737,236.029 C171.27,235.814 170.744,235.708 170.16,235.708 C169.576,235.708 169.051,235.814 168.583,236.029 C168.115,236.243 167.718,236.532 167.392,236.896 C167.066,237.26 166.817,237.682 166.646,238.163 C166.474,238.642 166.388,239.148 166.388,239.679 C166.388,240.211 166.474,240.716 166.646,241.196 C166.817,241.675 167.066,242.095 167.392,242.456 C167.718,242.815 168.115,243.102 168.583,243.317 C169.051,243.531 169.576,243.638 170.16,243.638 C170.744,243.638 171.27,243.531 171.737,243.317 C172.205,243.102 172.602,242.815 172.928,242.456 C173.254,242.095 173.503,241.675 173.675,241.196 C173.846,240.716 173.932,240.211 173.932,239.679 Z M174.911,239.672 C174.911,240.368 174.791,241.007 174.55,241.59 C174.31,242.174 173.978,242.678 173.553,243.103 C173.127,243.529 172.625,243.861 172.046,244.101 C171.467,244.341 170.838,244.462 170.16,244.462 C169.482,244.462 168.854,244.341 168.274,244.101 C167.695,243.861 167.192,243.529 166.768,243.103 C166.343,242.678 166.01,242.174 165.77,241.59 C165.529,241.007 165.41,240.368 165.41,239.672 C165.41,238.977 165.529,238.338 165.77,237.754 C166.01,237.17 166.343,236.667 166.768,236.242 C167.192,235.817 167.695,235.484 168.274,235.244 C168.854,235.004 169.482,234.883 170.16,234.883 C170.838,234.883 171.467,235.004 172.046,235.244 C172.625,235.484 173.127,235.817 173.553,236.242 C173.978,236.667 174.31,237.17 174.55,237.754 C174.791,238.338 174.911,238.977 174.911,239.672 L174.911,239.672 Z" id="Fill-56" fill="#1A1919"></path>
        <polyline id="Fill-57" fill="#1A1919" points="179.056 244.23 178.129 244.23 178.129 235.115 183.627 235.115 183.627 235.939 179.056 235.939 179.056 239.093 183.305 239.093 183.305 239.918 179.056 239.918 179.056 244.23"></polyline>
        <polygon id="Fill-58" fill="#1A1919" points="186.651 244.23 187.578 244.23 187.578 235.115 186.651 235.115"></polygon>
        <polyline id="Fill-59" fill="#1A1919" points="194.21 244.23 193.283 244.23 193.283 235.939 190.231 235.939 190.231 235.115 197.261 235.115 197.261 235.939 194.21 235.939 194.21 244.23"></polyline>
        <path d="M204.328,236.583 C204.131,236.308 203.878,236.087 203.568,235.92 C203.26,235.753 202.887,235.669 202.448,235.669 C202.226,235.669 201.998,235.703 201.767,235.772 C201.534,235.84 201.324,235.945 201.136,236.087 C200.946,236.229 200.794,236.407 200.679,236.622 C200.563,236.836 200.505,237.089 200.505,237.38 C200.505,237.672 200.561,237.913 200.671,238.102 C200.782,238.291 200.931,238.452 201.114,238.585 C201.299,238.717 201.508,238.828 201.743,238.913 C201.979,238.999 202.225,239.085 202.481,239.17 C202.799,239.273 203.117,239.385 203.438,239.505 C203.759,239.626 204.048,239.782 204.305,239.975 C204.562,240.169 204.771,240.413 204.934,240.709 C205.097,241.005 205.178,241.38 205.178,241.836 C205.178,242.291 205.091,242.683 204.918,243.013 C204.744,243.344 204.519,243.617 204.242,243.831 C203.965,244.045 203.647,244.205 203.292,244.307 C202.936,244.411 202.577,244.462 202.217,244.462 C201.942,244.462 201.668,244.434 201.393,244.379 C201.118,244.322 200.856,244.239 200.607,244.128 C200.358,244.015 200.127,243.874 199.912,243.702 C199.697,243.531 199.509,243.334 199.346,243.11 L200.145,242.518 C200.342,242.844 200.618,243.117 200.975,243.336 C201.33,243.554 201.749,243.664 202.229,243.664 C202.462,243.664 202.697,243.628 202.938,243.554 C203.178,243.481 203.395,243.37 203.588,243.219 C203.781,243.069 203.939,242.884 204.064,242.666 C204.188,242.447 204.251,242.192 204.251,241.9 C204.251,241.583 204.188,241.318 204.064,241.108 C203.939,240.898 203.774,240.722 203.568,240.581 C203.362,240.438 203.127,240.321 202.86,240.226 C202.595,240.131 202.315,240.038 202.023,239.943 C201.724,239.848 201.427,239.742 201.136,239.621 C200.844,239.501 200.582,239.344 200.35,239.151 C200.118,238.958 199.932,238.72 199.79,238.436 C199.648,238.153 199.577,237.805 199.577,237.394 C199.577,236.956 199.665,236.579 199.842,236.26 C200.018,235.943 200.247,235.681 200.53,235.475 C200.813,235.269 201.127,235.12 201.47,235.025 C201.813,234.93 202.152,234.883 202.487,234.883 C203.105,234.883 203.633,234.993 204.07,235.212 C204.509,235.43 204.839,235.69 205.063,235.991 L204.328,236.583" id="Fill-60" fill="#1A1919"></path>
        <polyline id="Fill-61" fill="#1A1919" points="215.581 244.23 214.654 244.23 214.654 235.939 211.603 235.939 211.603 235.115 218.632 235.115 218.632 235.939 215.581 235.939 215.581 244.23"></polyline>
        <path d="M228.931,239.679 C228.931,239.148 228.845,238.642 228.673,238.163 C228.501,237.682 228.252,237.26 227.926,236.896 C227.6,236.532 227.203,236.243 226.735,236.029 C226.268,235.814 225.742,235.708 225.158,235.708 C224.574,235.708 224.049,235.814 223.581,236.029 C223.113,236.243 222.716,236.532 222.391,236.896 C222.063,237.26 221.815,237.682 221.644,238.163 C221.472,238.642 221.386,239.148 221.386,239.679 C221.386,240.211 221.472,240.716 221.644,241.196 C221.815,241.675 222.063,242.095 222.391,242.456 C222.716,242.815 223.113,243.102 223.581,243.317 C224.049,243.531 224.574,243.638 225.158,243.638 C225.742,243.638 226.268,243.531 226.735,243.317 C227.203,243.102 227.6,242.815 227.926,242.456 C228.252,242.095 228.501,241.675 228.673,241.196 C228.845,240.716 228.931,240.211 228.931,239.679 Z M229.909,239.672 C229.909,240.368 229.788,241.007 229.548,241.59 C229.308,242.174 228.976,242.678 228.551,243.103 C228.126,243.529 227.624,243.861 227.044,244.101 C226.465,244.341 225.836,244.462 225.158,244.462 C224.48,244.462 223.852,244.341 223.272,244.101 C222.692,243.861 222.19,243.529 221.766,243.103 C221.341,242.678 221.008,242.174 220.768,241.59 C220.527,241.007 220.407,240.368 220.407,239.672 C220.407,238.977 220.527,238.338 220.768,237.754 C221.008,237.17 221.341,236.667 221.766,236.242 C222.19,235.817 222.692,235.484 223.272,235.244 C223.852,235.004 224.48,234.883 225.158,234.883 C225.836,234.883 226.465,235.004 227.044,235.244 C227.624,235.484 228.126,235.817 228.551,236.242 C228.976,236.667 229.308,237.17 229.548,237.754 C229.788,238.338 229.909,238.977 229.909,239.672 L229.909,239.672 Z" id="Fill-62" fill="#1A1919"></path>
        <polyline id="Fill-63" fill="#1A1919" points="149.072 261.195 153.952 261.195 153.952 262.019 148.145 262.019 148.145 252.904 153.797 252.904 153.797 253.728 149.072 253.728 149.072 256.856 153.488 256.856 153.488 257.68 149.072 257.68 149.072 261.195"></polyline>
        <polyline id="Fill-64" fill="#1A1919" points="163.518 260.668 163.543 260.668 163.543 252.904 164.47 252.904 164.47 262.019 163.312 262.019 158.007 254.178 157.981 254.178 157.981 262.019 157.054 262.019 157.054 252.904 158.213 252.904 163.518 260.668"></polyline>
        <polyline id="Fill-65" fill="#1A1919" points="170.971 260.822 170.997 260.822 173.958 252.904 174.949 252.904 171.46 262.019 170.482 262.019 167.006 252.904 168.01 252.904 170.971 260.822"></polyline>
        <polygon id="Fill-66" fill="#1A1919" points="177.485 262.019 178.413 262.019 178.413 252.904 177.485 252.904"></polygon>
        <path d="M183.047,256.96 L184.656,256.96 C185.403,256.96 185.979,256.825 186.382,256.554 C186.785,256.284 186.987,255.879 186.987,255.337 C186.987,255.037 186.931,254.784 186.819,254.578 C186.708,254.372 186.554,254.205 186.356,254.076 C186.158,253.947 185.918,253.852 185.635,253.793 C185.352,253.732 185.038,253.703 184.695,253.703 L183.047,253.703 L183.047,256.96 Z M183.047,262.019 L182.12,262.019 L182.12,252.904 L184.798,252.904 C185.244,252.904 185.658,252.947 186.041,253.033 C186.423,253.119 186.753,253.258 187.032,253.451 C187.311,253.644 187.527,253.895 187.682,254.205 C187.837,254.513 187.914,254.891 187.914,255.337 C187.914,255.672 187.854,255.977 187.733,256.252 C187.613,256.526 187.45,256.764 187.244,256.966 C187.038,257.168 186.794,257.329 186.511,257.449 C186.228,257.569 185.918,257.646 185.584,257.68 L188.249,262.019 L187.115,262.019 L184.592,257.757 L183.047,257.757 L183.047,262.019 L183.047,262.019 Z" id="Fill-67" fill="#1A1919"></path>
        <path d="M199.153,257.468 C199.153,256.937 199.067,256.431 198.896,255.952 C198.724,255.471 198.475,255.049 198.148,254.685 C197.822,254.321 197.426,254.032 196.958,253.818 C196.49,253.603 195.965,253.497 195.381,253.497 C194.797,253.497 194.271,253.603 193.804,253.818 C193.336,254.032 192.938,254.321 192.613,254.685 C192.286,255.049 192.038,255.471 191.866,255.952 C191.694,256.431 191.608,256.937 191.608,257.468 C191.608,258 191.694,258.505 191.866,258.985 C192.038,259.464 192.286,259.884 192.613,260.245 C192.938,260.604 193.336,260.891 193.804,261.106 C194.271,261.32 194.797,261.427 195.381,261.427 C195.965,261.427 196.49,261.32 196.958,261.106 C197.426,260.891 197.822,260.604 198.148,260.245 C198.475,259.884 198.724,259.464 198.896,258.985 C199.067,258.505 199.153,258 199.153,257.468 Z M200.132,257.462 C200.132,258.157 200.011,258.796 199.771,259.379 C199.53,259.963 199.198,260.467 198.773,260.892 C198.349,261.318 197.847,261.65 197.267,261.89 C196.688,262.13 196.059,262.251 195.381,262.251 C194.703,262.251 194.074,262.13 193.495,261.89 C192.915,261.65 192.413,261.318 191.988,260.892 C191.563,260.467 191.23,259.963 190.99,259.379 C190.75,258.796 190.63,258.157 190.63,257.462 C190.63,256.766 190.75,256.128 190.99,255.544 C191.23,254.96 191.563,254.456 191.988,254.031 C192.413,253.606 192.915,253.273 193.495,253.033 C194.074,252.793 194.703,252.672 195.381,252.672 C196.059,252.672 196.688,252.793 197.267,253.033 C197.847,253.273 198.349,253.606 198.773,254.031 C199.198,254.456 199.53,254.96 199.771,255.544 C200.011,256.128 200.132,256.766 200.132,257.462 L200.132,257.462 Z" id="Fill-68" fill="#1A1919"></path>
        <polyline id="Fill-69" fill="#1A1919" points="209.813 260.668 209.839 260.668 209.839 252.904 210.766 252.904 210.766 262.019 209.606 262.019 204.303 254.178 204.276 254.178 204.276 262.019 203.35 262.019 203.35 252.904 204.509 252.904 209.813 260.668"></polyline>
        <polyline id="Fill-70" fill="#1A1919" points="218.979 260.449 218.992 260.449 222.043 252.904 223.459 252.904 223.459 262.019 222.532 262.019 222.532 254.101 222.507 254.101 219.211 262.019 218.722 262.019 215.426 254.101 215.399 254.101 215.399 262.019 214.473 262.019 214.473 252.904 215.889 252.904 218.979 260.449"></polyline>
        <polyline id="Fill-71" fill="#1A1919" points="228.094 261.195 232.974 261.195 232.974 262.019 227.167 262.019 227.167 252.904 232.819 252.904 232.819 253.728 228.094 253.728 228.094 256.856 232.51 256.856 232.51 257.68 228.094 257.68 228.094 261.195"></polyline>
        <polyline id="Fill-72" fill="#1A1919" points="242.538 260.668 242.564 260.668 242.564 252.904 243.491 252.904 243.491 262.019 242.332 262.019 237.028 254.178 237.002 254.178 237.002 262.019 236.075 262.019 236.075 252.904 237.234 252.904 242.538 260.668"></polyline>
        <polyline id="Fill-73" fill="#1A1919" points="250.121 262.019 249.194 262.019 249.194 253.728 246.143 253.728 246.143 252.904 253.172 252.904 253.172 253.728 250.121 253.728 250.121 262.019"></polyline>
        <path d="M256.326,258.775 L260.344,258.775 L258.335,253.934 L256.326,258.775 Z M254.987,262.019 L253.971,262.019 L257.91,252.904 L258.812,252.904 L262.726,262.019 L261.695,262.019 L260.691,259.625 L255.979,259.625 L254.987,262.019 L254.987,262.019 Z" id="Fill-74" fill="#1A1919"></path>
        <polyline id="Fill-75" fill="#1A1919" points="266.277 261.195 270.526 261.195 270.526 262.019 265.351 262.019 265.351 252.904 266.277 252.904 266.277 261.195"></polyline>
        <path d="M155.818,278.328 C155.664,278.559 155.477,278.779 155.258,278.985 C155.04,279.191 154.786,279.373 154.499,279.53 C154.211,279.687 153.894,279.811 153.546,279.903 C153.198,279.994 152.819,280.04 152.407,280.04 C151.72,280.04 151.085,279.92 150.501,279.679 C149.917,279.439 149.416,279.107 148.995,278.681 C148.574,278.256 148.246,277.753 148.01,277.169 C147.774,276.586 147.656,275.946 147.656,275.251 C147.656,274.555 147.776,273.917 148.017,273.333 C148.257,272.749 148.589,272.245 149.014,271.82 C149.439,271.395 149.941,271.062 150.521,270.822 C151.1,270.582 151.729,270.462 152.407,270.462 C152.741,270.462 153.07,270.497 153.392,270.566 C153.713,270.635 154.016,270.734 154.299,270.86 C154.583,270.987 154.84,271.138 155.072,271.316 C155.303,271.493 155.497,271.693 155.651,271.917 L154.878,272.483 C154.784,272.337 154.658,272.191 154.499,272.045 C154.34,271.899 154.153,271.77 153.939,271.659 C153.724,271.547 153.49,271.458 153.237,271.388 C152.984,271.32 152.711,271.286 152.419,271.286 C151.827,271.286 151.297,271.392 150.83,271.606 C150.362,271.82 149.965,272.109 149.639,272.472 C149.313,272.837 149.063,273.257 148.892,273.737 C148.72,274.215 148.634,274.72 148.634,275.251 C148.634,275.781 148.722,276.286 148.898,276.765 C149.074,277.244 149.325,277.666 149.651,278.029 C149.978,278.392 150.375,278.681 150.842,278.895 C151.31,279.109 151.836,279.216 152.419,279.216 C152.943,279.216 153.441,279.109 153.913,278.894 C154.385,278.679 154.78,278.337 155.098,277.864 L155.818,278.328" id="Fill-76" fill="#1A1919"></path>
        <path d="M159.823,276.564 L163.839,276.564 L161.831,271.723 L159.823,276.564 Z M158.484,279.808 L157.467,279.808 L161.406,270.693 L162.308,270.693 L166.221,279.808 L165.191,279.808 L164.187,277.414 L159.475,277.414 L158.484,279.808 L158.484,279.808 Z" id="Fill-77" fill="#1A1919"></path>
        <path d="M172.053,280.04 C171.367,280.04 170.805,279.921 170.367,279.686 C169.929,279.45 169.582,279.152 169.324,278.792 C169.066,278.43 168.888,278.038 168.79,277.613 C168.691,277.188 168.642,276.787 168.642,276.41 L168.642,270.693 L169.568,270.693 L169.568,276.306 C169.568,276.675 169.611,277.034 169.697,277.381 C169.783,277.729 169.922,278.038 170.116,278.308 C170.309,278.579 170.564,278.797 170.882,278.964 C171.199,279.132 171.59,279.216 172.053,279.216 C172.517,279.216 172.907,279.132 173.225,278.964 C173.542,278.797 173.798,278.579 173.991,278.308 C174.184,278.038 174.323,277.729 174.409,277.381 C174.495,277.034 174.538,276.675 174.538,276.306 L174.538,270.693 L175.465,270.693 L175.465,276.41 C175.465,276.787 175.416,277.188 175.317,277.613 C175.218,278.038 175.04,278.43 174.783,278.792 C174.525,279.152 174.175,279.45 173.733,279.686 C173.292,279.921 172.731,280.04 172.053,280.04" id="Fill-78" fill="#1A1919"></path>
        <path d="M183.537,272.161 C183.34,271.886 183.087,271.666 182.777,271.498 C182.469,271.331 182.096,271.247 181.657,271.247 C181.435,271.247 181.207,271.281 180.976,271.35 C180.744,271.419 180.533,271.523 180.344,271.666 C180.155,271.807 180.004,271.985 179.887,272.2 C179.771,272.414 179.713,272.668 179.713,272.959 C179.713,273.251 179.77,273.491 179.881,273.68 C179.992,273.869 180.139,274.03 180.323,274.163 C180.508,274.295 180.717,274.406 180.952,274.491 C181.188,274.577 181.434,274.663 181.69,274.749 C182.008,274.851 182.326,274.963 182.647,275.084 C182.968,275.204 183.257,275.36 183.514,275.553 C183.771,275.747 183.98,275.991 184.143,276.287 C184.306,276.584 184.387,276.959 184.387,277.414 C184.387,277.869 184.3,278.261 184.127,278.591 C183.953,278.922 183.728,279.195 183.451,279.409 C183.174,279.624 182.856,279.783 182.501,279.885 C182.145,279.989 181.786,280.04 181.426,280.04 C181.151,280.04 180.877,280.012 180.602,279.957 C180.327,279.9 180.065,279.817 179.816,279.706 C179.567,279.593 179.336,279.452 179.121,279.28 C178.907,279.109 178.718,278.912 178.555,278.688 L179.354,278.096 C179.551,278.422 179.827,278.695 180.184,278.914 C180.539,279.132 180.958,279.242 181.438,279.242 C181.671,279.242 181.906,279.206 182.146,279.132 C182.387,279.059 182.604,278.948 182.797,278.797 C182.99,278.647 183.148,278.462 183.273,278.244 C183.397,278.025 183.46,277.77 183.46,277.478 C183.46,277.161 183.397,276.896 183.273,276.686 C183.148,276.476 182.983,276.3 182.777,276.159 C182.571,276.016 182.336,275.899 182.069,275.804 C181.804,275.71 181.524,275.616 181.232,275.521 C180.933,275.426 180.637,275.32 180.344,275.199 C180.053,275.079 179.791,274.922 179.559,274.729 C179.327,274.536 179.141,274.298 178.999,274.014 C178.857,273.731 178.787,273.383 178.787,272.972 C178.787,272.534 178.875,272.157 179.05,271.838 C179.227,271.521 179.456,271.259 179.739,271.053 C180.022,270.847 180.336,270.698 180.68,270.603 C181.022,270.508 181.361,270.462 181.696,270.462 C182.314,270.462 182.842,270.571 183.279,270.79 C183.718,271.008 184.048,271.268 184.271,271.569 L183.537,272.161" id="Fill-79" fill="#1A1919"></path>
        <polyline id="Fill-80" fill="#1A1919" points="188.596 278.984 193.476 278.984 193.476 279.808 187.669 279.808 187.669 270.693 193.321 270.693 193.321 271.517 188.596 271.517 188.596 274.645 193.012 274.645 193.012 275.469 188.596 275.469 188.596 278.984"></polyline>
        <path d="M200.994,272.161 C200.797,271.886 200.544,271.666 200.234,271.498 C199.926,271.331 199.553,271.247 199.114,271.247 C198.892,271.247 198.664,271.281 198.433,271.35 C198.2,271.419 197.99,271.523 197.802,271.666 C197.612,271.807 197.46,271.985 197.345,272.2 C197.229,272.414 197.171,272.668 197.171,272.959 C197.171,273.251 197.227,273.491 197.337,273.68 C197.448,273.869 197.597,274.03 197.78,274.163 C197.965,274.295 198.174,274.406 198.409,274.491 C198.645,274.577 198.891,274.663 199.147,274.749 C199.465,274.851 199.783,274.963 200.104,275.084 C200.425,275.204 200.714,275.36 200.971,275.553 C201.228,275.747 201.438,275.991 201.6,276.287 C201.763,276.584 201.844,276.959 201.844,277.414 C201.844,277.869 201.757,278.261 201.584,278.591 C201.41,278.922 201.185,279.195 200.908,279.409 C200.631,279.624 200.313,279.783 199.958,279.885 C199.602,279.989 199.243,280.04 198.883,280.04 C198.608,280.04 198.334,280.012 198.059,279.957 C197.784,279.9 197.522,279.817 197.273,279.706 C197.024,279.593 196.793,279.452 196.578,279.28 C196.363,279.109 196.175,278.912 196.012,278.688 L196.811,278.096 C197.008,278.422 197.284,278.695 197.641,278.914 C197.996,279.132 198.415,279.242 198.896,279.242 C199.128,279.242 199.363,279.206 199.604,279.132 C199.844,279.059 200.061,278.948 200.254,278.797 C200.447,278.647 200.605,278.462 200.73,278.244 C200.854,278.025 200.917,277.77 200.917,277.478 C200.917,277.161 200.854,276.896 200.73,276.686 C200.605,276.476 200.44,276.3 200.234,276.159 C200.028,276.016 199.793,275.899 199.526,275.804 C199.261,275.71 198.981,275.616 198.689,275.521 C198.39,275.426 198.093,275.32 197.802,275.199 C197.51,275.079 197.248,274.922 197.016,274.729 C196.784,274.536 196.598,274.298 196.456,274.014 C196.314,273.731 196.243,273.383 196.243,272.972 C196.243,272.534 196.331,272.157 196.508,271.838 C196.684,271.521 196.913,271.259 197.196,271.053 C197.479,270.847 197.793,270.698 198.136,270.603 C198.479,270.508 198.818,270.462 199.153,270.462 C199.771,270.462 200.299,270.571 200.736,270.79 C201.175,271.008 201.505,271.268 201.729,271.569 L200.994,272.161" id="Fill-81" fill="#1A1919"></path>
    </g>
</svg>