<?xml version="1.0" encoding="UTF-8"?>
<svg width="60px" height="52px" viewBox="0 0 60 52" version="1.1" xmlns="http://www.w3.org/2000/svg" xmlns:xlink="http://www.w3.org/1999/xlink">
    <!-- Generator: Sketch 55 (78076) - https://sketchapp.com -->
    <title>icon</title>
    <desc>Created with Sketch.</desc>
    <g id="Symbols" stroke="none" stroke-width="1" fill="none" fill-rule="evenodd">
        <g id="Outlined-/-Icon" transform="translate(-3.000000, -7.000000)" stroke="#00553B">
            <g id="icon" transform="translate(3.000000, 7.000000)">
                <g id="Group-23" transform="translate(38.000000, 35.000000)" stroke-width="0.75">
                    <g id="Group-15" transform="translate(0.000000, 0.024343)">
                        <path d="M0.193175439,2.8815 C0.193175439,4.38654255 3.0755614,5.60656383 6.63107018,5.60656383 C10.1865789,5.60656383 13.0689649,4.38654255 13.0689649,2.8815 C13.0689649,1.37645745 10.1865789,0.15643617 6.63107018,0.15643617 C3.0755614,0.15643617 0.193175439,1.37645745 0.193175439,2.8815 Z" id="Stroke-1" stroke-linecap="round"></path>
                        <path d="M0.719901754,3.97051277 C0.381024561,4.30183191 0.193059649,4.66751277 0.193059649,5.05164043 C0.193059649,6.55668298 3.07544561,7.77670426 6.63095439,7.77670426 C7.31334035,7.77670426 7.9706386,7.73185319 8.58741053,7.6486617" id="Stroke-3" stroke-linecap="round"></path>
                        <path d="M0.716698246,6.14372766 C0.379750877,6.4743234 0.193329825,6.83891915 0.193329825,7.2219617 C0.193329825,8.72700426 3.07532982,9.94702553 6.6308386,9.94702553 C7.09669825,9.94702553 7.55059298,9.92640851 7.98827719,9.88625957" id="Stroke-5" stroke-linecap="round"></path>
                        <path d="M0.724996491,8.30580213 C0.383031579,8.63856809 0.193136842,9.00605745 0.193136842,9.39199362 C0.193136842,10.8973979 3.07552281,12.1170574 6.63103158,12.1170574 C7.17215439,12.1170574 7.69706667,12.0888447 8.19920702,12.0356745" id="Stroke-7" stroke-linecap="round"></path>
                        <path d="M0.725961404,10.4751468 C0.383224561,10.8082745 0.19294386,11.1757638 0.19294386,11.5624234 C0.19294386,13.067466 3.07532982,14.2874872 6.6308386,14.2874872 C7.53631228,14.2874872 8.39817193,14.2079128 9.17975088,14.0654021" id="Stroke-9" stroke-linecap="round"></path>
                        <path d="M0.728778947,12.6425383 C0.384112281,12.9763894 0.193059649,13.3449638 0.193059649,13.7327085 C0.193059649,15.2373894 3.07544561,16.4574106 6.63095439,16.4574106 C8.27670877,16.4574106 9.77811228,16.1962617 10.9167088,15.7661979" id="Stroke-11" stroke-linecap="round"></path>
                        <path d="M10,10.4996647 C10,13.5375587 12.4625668,16 15.5003342,16 C18.5370989,16 21,13.5375587 21,10.4996647 C21,7.46177062 18.5370989,5 15.5003342,5 C12.4625668,5 10,7.46177062 10,10.4996647 Z" id="Stroke-13" stroke-linecap="square"></path>
                    </g>
                    <g id="Group-22" transform="translate(13.700000, 6.500000)" stroke-linecap="round" stroke-linejoin="round">
                        <path d="M3.49197895,2.28527021 C3.49197895,1.40995106 2.75864561,0.954568085 1.82461053,0.954568085 C0.890575439,0.954568085 0.133698246,1.40995106 0.133698246,2.28527021 C0.133698246,3.16058936 0.696049123,3.34288723 1.82461053,3.87097234 C2.95047018,4.39797234 3.51436491,4.58027021 3.51436491,5.45558936 C3.51436491,6.3298234 2.75864561,6.77544043 1.82461053,6.77544043 C0.890575439,6.77544043 0.133698246,6.3298234 0.133698246,5.45558936" id="Stroke-16"></path>
                        <path d="M1.82430175,0.167685106 L1.82430175,0.861068085" id="Stroke-18"></path>
                        <path d="M1.82430175,6.86904894 L1.82430175,7.56134681" id="Stroke-20"></path>
                    </g>
                </g>
                <polyline id="Stroke-32" stroke-linecap="round" stroke-linejoin="round" points="53.9734629 20.5928076 44.03592 32.864002 37.00212 28.0490752 28.5824057 37.6772934 24.0321771 33.9859585 10.8081771 42.2305395"></polyline>
                <path d="M50.9151686,20.8690444 L53.9736257,20.5926441" id="Stroke-33" stroke-linecap="round" stroke-linejoin="round"></path>
                <path d="M54.2661171,23.5507821 L53.9729743,20.5921534" id="Stroke-34" stroke-linecap="round" stroke-linejoin="round"></path>
                <g id="Group-69" stroke-linejoin="round">
                    <path d="M35.625,47.0209338 L34.4773457,47.0209338 L5.23308857,47.0209338 C4.33574571,47.0209338 3.60940286,46.289863 3.60940286,45.3903352 L3.60940286,21.5463071" id="Stroke-35" stroke-linecap="round"></path>
                    <path d="M41.0769686,21.5467977 L41.0769686,27.0229713" id="Stroke-37" stroke-linecap="round"></path>
                    <path d="M23.9386971,36.9895833 L23.9386971,47.0204431" id="Stroke-39" stroke-linecap="round"></path>
                    <path d="M34.4766943,27.6041667 L34.4766943,27.4306907 C34.4766943,26.5295274 33.75198,25.8017277 32.8546371,25.8017277 L25.5602657,25.8017277 C24.6645514,25.8017277 23.9382086,26.5295274 23.9382086,27.4306907 L23.9382086,31.3837064" id="Stroke-41" stroke-linecap="round"></path>
                    <path d="M34.4766943,47.0209338 L34.4766943,34.2836204" id="Stroke-43" stroke-linecap="round"></path>
                    <path d="M18.78264,31.1640581 L8.24415429,31.1640581" id="Stroke-45" stroke-linecap="round"></path>
                    <path d="M17.3099229,34.8982432 L9.71752286,34.8982432 C8.72083714,34.8982432 7.91306571,34.0870327 7.91306571,33.0877391 L7.91306571,27.0118379 C7.91306571,26.0092733 8.72083714,25.1980628 9.71752286,25.1980628 L17.3099229,25.1980628 C18.3066086,25.1980628 19.11438,26.0092733 19.11438,27.0118379 L19.11438,33.0877391 C19.11438,34.0870327 18.3066086,34.8982432 17.3099229,34.8982432 Z" id="Stroke-47" stroke-linecap="round"></path>
                    <path d="M40.0368,4.85303414 L24.8568857,4.85303414 L4.64794286,4.85303414 C4.07305714,4.85303414 3.60891429,4.38527969 3.60891429,3.80958191 L3.60891429,1.62781818 C3.60891429,1.0521204 4.07305714,0.584365955 4.64794286,0.584365955 L40.0368,0.584365955 C40.6116857,0.584365955 41.0774571,1.0521204 41.0774571,1.62781818 L41.0774571,3.80958191 C41.0774571,4.38527969 40.6116857,4.85303414 40.0368,4.85303414 Z" id="Stroke-49" stroke-linecap="round"></path>
                    <path d="M24.8572114,5.1637801 L24.8572114,19.1604323 C24.8572114,20.4786494 23.7937543,21.5466342 22.4827543,21.5466342 L22.4811257,21.5466342 C21.1701257,21.5466342 20.1066686,20.4786494 20.1066686,19.1604323 L20.1034114,5.1637801" id="Stroke-51" stroke-linecap="round"></path>
                    <path d="M20.1058543,4.85303414 L19.9804543,19.2323945 C19.9381114,20.5506116 18.8420829,21.5826153 17.5310829,21.5433632 C16.2200829,21.50084 15.1891971,20.4001451 15.23154,19.0835636 L15.6712543,5.01822015" id="Stroke-53" stroke-linecap="round"></path>
                    <path d="M15.73314,5.3266764 L15.0295971,19.3216931 C14.9318829,20.6350037 13.7935114,21.6212132 12.48414,21.5230829 C11.1763971,21.4249526 10.1943686,20.2817346 10.2920829,18.9667885 L11.3164543,5.16312589" id="Stroke-55" stroke-linecap="round"></path>
                    <path d="M11.3164543,5.1637801 L10.03314,19.4106646 C9.87028286,20.7190686 8.68305429,21.6464 7.38019714,21.4828495 C6.07896857,21.3176635 5.15556857,20.1253803 5.31842571,18.8186118 L7.11148286,5.21448075" id="Stroke-57" stroke-linecap="round"></path>
                    <path d="M7.11229714,5.2139901 L5.34366857,19.4101739 C5.18081143,20.718578 3.99358286,21.6459093 2.69235429,21.4823588 C1.38949714,21.3188083 0.466097143,20.1265252 0.628954286,18.8181211 L3.86166857,4.78221677" id="Stroke-59" stroke-linecap="round"></path>
                    <path d="M28.9739143,5.01756594 L29.697,19.0976289 C29.7312,20.415846 28.6954286,21.5099989 27.3828,21.542709 C26.0718,21.5770546 24.9806571,20.5368734 24.9480857,19.2202918 L24.8568857,5.36919953" id="Stroke-61" stroke-linecap="round"></path>
                    <path d="M33.2808343,5.1637801 L34.5999771,19.0017883 C34.6814057,20.3167344 33.6863486,21.4485039 32.3753486,21.5302791 C31.0676057,21.6120544 29.9390057,20.6127608 29.8575771,19.2978147 L28.9732629,5.01822015" id="Stroke-63" stroke-linecap="round"></path>
                    <path d="M37.0325743,5.1637801 L39.5601171,18.8644059 C39.70506,20.1744454 38.7621171,21.3520091 37.45926,21.4959335 C36.1547743,21.6414935 34.9805743,20.6961716 34.83726,19.386132 L33.2803457,5.1637801" id="Stroke-65" stroke-linecap="round"></path>
                    <path d="M40.5576923,4.41666667 L44.2494257,18.8634246 C44.39274,20.1734641 43.4530543,21.3526633 42.1485686,21.4965877 C40.8424543,21.6405122 39.6715114,20.6951903 39.5265686,19.3851507 L36.7211538,4.85303414" id="Stroke-67"></path>
                </g>
            </g>
        </g>
    </g>
</svg>