<?xml version="1.0" encoding="UTF-8"?>
<svg width="60px" height="48px" viewBox="0 0 60 48" version="1.1" xmlns="http://www.w3.org/2000/svg" xmlns:xlink="http://www.w3.org/1999/xlink">
    <!-- Generator: Sketch 55 (78076) - https://sketchapp.com -->
    <title>icon</title>
    <desc>Created with Sketch.</desc>
    <g id="Symbols" stroke="none" stroke-width="1" fill="none" fill-rule="evenodd">
        <g id="Outlined-/-Icon" transform="translate(-2.000000, -9.000000)" stroke="#00553B">
            <g id="icon" transform="translate(3.000000, 10.000000)">
                <path d="M55.1443118,21.7935237 L39.5961538,30.8536585" id="Stroke-3" stroke-linecap="round"></path>
                <path d="M35.1346154,30.8536585 L28.0154996,23.692656" id="Stroke-5"></path>
                <ellipse id="Oval" cx="49.0769231" cy="31.4146341" rx="2.78846154" ry="2.80487805"></ellipse>
                <ellipse id="Oval" cx="36.8076923" cy="32.5365854" rx="2.78846154" ry="2.80487805"></ellipse>
                <ellipse id="Oval" cx="40.1538462" cy="19.0731707" rx="2.78846154" ry="2.80487805"></ellipse>
                <path d="M51.8653846,18.5121951 L49.6346154,28.6097561" id="Stroke-11" stroke-linecap="round"></path>
                <path d="M46.9234082,29.5530634 L41.6082907,21.7931917" id="Stroke-13" stroke-linecap="round"></path>
                <path d="M38.2043537,21.5740738 L24.2877928,31.6424298" id="Stroke-15" stroke-linecap="round"></path>
                <path d="M27.6046523,20.858178 C29.2274595,26.3737514 25.973929,32.1316824 20.3376427,33.7208404 C14.7024872,35.3077851 8.81740817,32.1239358 7.19460101,26.6094691 C5.57179386,21.0938957 8.82532431,15.3359647 14.4604798,13.7479134 C20.0967661,12.1598621 25.9818451,15.3437113 27.6046523,20.858178 Z" id="Stroke-17"></path>
                <path d="M9.01802559,37.4423031 L3.03569119,45.4057995 C2.65006245,45.9192879 1.90594599,46.0310601 1.3812195,45.6536905 L0.524015438,45.0361764 C-0.000711057693,44.6588067 -0.114929541,43.9306271 0.271830075,43.4171387 L6.2530336,35.4536423 C6.63866234,34.940154 7.38390967,34.8294884 7.90863616,35.2057514 L8.76584022,35.8232654 C9.29056672,36.2006351 9.40365433,36.9288148 9.01802559,37.4423031 Z" id="Stroke-19"></path>
                <path d="M8.33667276,35.5142871 L11.0982721,32.0969334" id="Stroke-21"></path>
                <path d="M12.8429877,11.6536776 L12.8429877,6.23548998 L12.8429877,2.0899567 C12.8429877,0.955634322 13.7827457,0.0371098637 14.9407628,0.0371098637 L55.6749188,0.0371098637 C56.8340668,0.0371098637 57.7726939,0.955634322 57.7726939,2.0899567 L57.7726939,38.3052735 C57.7726939,39.4395958 56.8340668,40.3592269 55.6749188,40.3592269 L14.9407628,40.3592269 C13.7827457,40.3592269 12.8429877,39.4395958 12.8429877,38.3052735 L12.8429877,36.4969976" id="Stroke-23"></path>
                <path d="M57.7726939,6.59969046 L12.8429877,6.59969046" id="Stroke-25"></path>
            </g>
        </g>
    </g>
</svg>