<?xml version="1.0" encoding="UTF-8"?>
<svg width="52px" height="56px" viewBox="0 0 52 56" version="1.1" xmlns="http://www.w3.org/2000/svg" xmlns:xlink="http://www.w3.org/1999/xlink">
    <!-- Generator: Sketch 55 (78076) - https://sketchapp.com -->
    <title>icon</title>
    <desc>Created with Sketch.</desc>
    <g id="Symbols" stroke="none" stroke-width="1" fill="none" fill-rule="evenodd" stroke-linecap="round" stroke-linejoin="round">
        <g id="Outlined-/-Icon" transform="translate(-6.000000, -4.000000)" stroke="#00553B">
            <g id="icon" transform="translate(6.000000, 4.000000)">
                <path d="M37,47.3057692 L42.387027,47.3057692" id="Stroke-1"></path>
                <polyline id="Stroke-2" points="0.527027027 26.6450897 9.83502703 26.6450897 9.83502703 27.9044487 9.83502703 44.5045769 0.527027027 44.5045769"></polyline>
                <path d="M11.7393514,42.128859 L9.83502703,42.128859" id="Stroke-4"></path>
                <path d="M9.83502703,28.5813718 L13.1152432,28.5813718 C13.1152432,26.4053462 14.8734054,24.6411154 17.0419459,24.6411154 L24.1294054,24.6411154 C26.5776216,24.6411154 27.8916757,25.0486795 28.6997838,26.0838077" id="Stroke-5"></path>
                <path d="M29.6624865,50.0863718 L29.543027,49.9566282 C30.2429189,50.7153462 30.1951351,51.8999615 29.439027,52.600859 C28.6829189,53.3017564 27.5023784,53.2552179 26.8038919,52.4965 L26.5256216,52.1932949" id="Stroke-7"></path>
                <path d="M28.9898595,42.4952436 L33.5489946,47.4494744 C34.3486703,48.3196026 34.2348324,49.7312692 33.2946162,50.6028077 C32.3544,51.4743462 30.943373,51.4757564 30.1408865,50.6070385 L28.9701838,49.3349872" id="Stroke-9"></path>
                <path d="M30.2128432,36.9685897 L36.9784649,44.3188462 C37.8048432,45.2171795 37.7134919,46.6514103 36.7718703,47.5229487 C35.8316541,48.3958974 34.3995459,48.3733333 33.5731676,47.475 L26.4688432,39.7580769" id="Stroke-11"></path>
                <path d="M34.7337514,34.9234359 L40.1839135,40.8451026 C40.9737514,41.7039487 40.8528865,43.1071538 39.9126703,43.9786923 C38.9710486,44.8502308 37.5684541,44.8601026 36.7772108,44.0012564 L30.229427,36.9880513" id="Stroke-13"></path>
                <polyline id="Stroke-15" points="51.6946054 30.5507949 42.3866054 30.5507949 42.3866054 31.8101538 42.3866054 48.4102821 51.6946054 48.4102821"></polyline>
                <path d="M42.3866054,31.6663077 L39.1049838,31.6663077 C39.1049838,28.5820769 36.6160108,26.0845128 33.5423892,26.0845128 L26.4970919,26.0845128 C25.9532,26.0845128 25.4317946,26.3002821 25.0467135,26.6866923 L17.3155784,34.4459231 C17.2073622,34.5531026 17.2073622,34.7265641 17.3155784,34.8337436 C19.1847676,36.7107949 22.2148216,36.7107949 24.0854162,34.8337436 L27.9559027,30.9498974 L28.8047676,32.2642564 C29.7955784,33.8014359 31.7111459,34.4529744 33.4299568,33.8352821 L35.4776324,33.1019487" id="Stroke-17"></path>
                <path d="M12.5470378,45.4837179 L11.8106054,44.8575641 C11.0376324,44.1989744 10.9420649,43.0369231 11.5983892,42.2598718 L13.7163351,39.7552564 C14.3726595,38.9796154 15.5307135,38.8837179 16.3036865,39.5423077 L17.0401189,40.1698718 C17.8144973,40.8284615 17.9086595,41.9905128 17.2523351,42.7661538 L15.1343892,45.2707692 C14.4794703,46.0464103 13.3200108,46.1423077 12.5470378,45.4837179 Z" id="Stroke-19"></path>
                <path d="M16.0831784,48.4943333 L15.3467459,47.8681795 C14.573773,47.2095897 14.4782054,46.0475385 15.1345297,45.2704872 L18.9769081,40.726641 C19.6332324,39.951 20.7912865,39.8565128 21.5642595,40.5151026 L22.3006919,41.1412564 C23.0736649,41.7998462 23.1692324,42.9618974 22.5129081,43.7375385 L18.6705297,48.2827949 C18.0142054,49.0570256 16.8561514,49.1529231 16.0831784,48.4943333 Z" id="Stroke-21"></path>
                <path d="M19.6193189,51.5049487 L18.8828865,50.8787949 C18.1099135,50.2202051 18.0143459,49.0581538 18.6706703,48.2825128 L23.1806162,42.9489231 C23.8369405,42.1732821 24.9949946,42.0773846 25.7679676,42.7359744 L26.5044,43.3635385 C27.277373,44.0207179 27.3715351,45.1841795 26.7152108,45.9584103 L22.2066703,51.2934103 C21.5503459,52.067641 20.3922919,52.1635385 19.6193189,51.5049487 Z" id="Stroke-23"></path>
                <path d="M22.7994703,54.2125 L22.1853081,53.6907051 C21.540227,53.1407051 21.4615243,52.1732692 22.008227,51.5259615 L25.7030378,47.1569872 C26.2497405,46.5110897 27.2152541,46.4307051 27.8589297,46.9792949 L28.4730919,47.5025 C29.118173,48.0510897 29.1968757,49.0199359 28.650173,49.6658333 L24.9553622,54.0348077 C24.4086595,54.6821154 23.4431459,54.7610897 22.7994703,54.2125 Z" id="Stroke-25"></path>
                <path d="M29.3823892,4.59517949 C29.3823892,6.84030769 27.6537405,8.66094872 25.5203351,8.66094872 C23.3883351,8.66094872 21.6596865,6.84030769 21.6596865,4.59517949 C21.6596865,2.35005128 23.3883351,0.529410256 25.5203351,0.529410256 C27.6537405,0.529410256 29.3823892,2.35005128 29.3823892,4.59517949 Z" id="Stroke-28"></path>
                <path d="M29.9615568,22.5891923 L29.9615568,16.4376538" id="Stroke-30"></path>
                <path d="M27.2859459,10.6970641 L27.2859459,10.9015513 C27.2859459,11.2569359 27.5754595,11.5474487 27.9296216,11.5474487 L30.4242162,11.5474487 C31.6455135,11.5474487 32.6363243,12.5416795 32.6363243,13.7671923 L32.6363243,22.5897564" id="Stroke-32"></path>
                <path d="M21.2176865,21.1507308 L21.2176865,16.4376538" id="Stroke-34"></path>
                <path d="M23.8932973,10.6970641 L23.8932973,10.9015513 C23.8932973,11.2569359 23.6037838,11.5474487 23.2496216,11.5474487 L20.755027,11.5474487 C19.5323243,11.5474487 18.5429189,12.5416795 18.5429189,13.7671923 L18.5429189,21.1202692" id="Stroke-36"></path>
                <path d="M15.1279243,8.921 C15.1279243,10.8770256 13.6227351,12.4607436 11.7647892,12.4607436 C9.90965405,12.4607436 8.40305946,10.8770256 8.40305946,8.921 C8.40305946,6.96638462 9.90965405,5.38125641 11.7647892,5.38125641 C13.6227351,5.38125641 15.1279243,6.96638462 15.1279243,8.921 Z" id="Stroke-38"></path>
                <path d="M15.6310595,21.2732821 L15.6310595,19.3609744" id="Stroke-40"></path>
                <path d="M13.3025838,14.3624615 L13.3025838,14.5401538 C13.3025838,14.8504103 13.5541514,15.1028462 13.8633405,15.1028462 L16.5167459,15.1028462" id="Stroke-42"></path>
                <path d="M8.01924324,23.1393333 L8.01924324,19.3598462" id="Stroke-44"></path>
                <path d="M10.3484216,14.3624615 L10.3484216,14.5401538 C10.3484216,14.8504103 10.0968541,15.1028462 9.78766486,15.1028462 L7.61631351,15.1028462 C6.55242162,15.1028462 5.69090811,15.9687436 5.69090811,17.0363077 L5.69090811,23.1709231" id="Stroke-46"></path>
                <path d="M35.9099351,8.921 C35.9099351,10.8770256 37.4151243,12.4607436 39.2716649,12.4607436 C41.1282054,12.4607436 42.6333946,10.8770256 42.6333946,8.921 C42.6333946,6.96638462 41.1282054,5.38125641 39.2716649,5.38125641 C37.4151243,5.38125641 35.9099351,6.96638462 35.9099351,8.921 Z" id="Stroke-48"></path>
                <path d="M35.4062378,22.7420641 L35.4062378,19.3602692" id="Stroke-50"></path>
                <path d="M37.7352757,14.3624615 L37.7352757,14.5401538 C37.7352757,14.8504103 37.4837081,15.1028462 37.1745189,15.1028462 L34.5211135,15.1028462" id="Stroke-52"></path>
                <path d="M43.0179135,27.1214744 L43.0179135,19.3608333" id="Stroke-54"></path>
                <path d="M40.6888757,14.3624615 L40.6888757,14.5401538 C40.6888757,14.8504103 40.9404432,15.1028462 41.2496324,15.1028462 L43.4209838,15.1028462 C44.4848757,15.1028462 45.3463892,15.9687436 45.3463892,17.0363077 L45.3463892,27.1210513" id="Stroke-56"></path>
            </g>
        </g>
    </g>
</svg>